<?xml version="1.0" encoding="utf-8"?>
<!-- Generator: Adobe Illustrator 24.3.0, SVG Export Plug-In . SVG Version: 6.00 Build 0)  -->
<svg version="1.1" id="Layer_1" xmlns="http://www.w3.org/2000/svg" xmlns:xlink="http://www.w3.org/1999/xlink" x="0px" y="0px"
	 viewBox="0 0 50 50" style="enable-background:new 0 0 50 50;" xml:space="preserve">
<style type="text/css">
	.st0{fill:#F24B09;}
	.st1{fill:#1C1D21;}
</style>
<g>
	<path class="st0" d="M39.3,42.9c1.2,0,2.3-0.1,3.4-0.2c0.1-1,0.2-2.1,0.2-3.4s-0.1-2.3-0.2-3.4c-1-0.1-2.1-0.2-3.4-0.2
		s-2.3,0.1-3.4,0.2c-0.1,1-0.2,2.1-0.2,3.4s0.1,2.3,0.2,3.4C37,42.8,38.1,42.9,39.3,42.9z"/>
	<path class="st0" d="M39.3,28.6c-1,0-2.4,2-3.1,5.5c1-0.1,2-0.2,3.1-0.2c1,0,2.1,0.1,3.1,0.2C41.7,30.6,40.3,28.6,39.3,28.6z"/>
	<path class="st0" d="M33.9,39.3c0-1,0.1-2.1,0.2-3.1c-3.5,0.7-5.5,2-5.5,3.1s2,2.4,5.5,3.1C34,41.3,33.9,40.3,33.9,39.3z"/>
	<path class="st0" d="M36.2,44.5c0.7,3.5,2,5.5,3.1,5.5s2.4-2,3.1-5.5c-1,0.1-2,0.2-3.1,0.2C38.3,44.6,37.2,44.6,36.2,44.5
		L36.2,44.5z"/>
	<path class="st0" d="M42.4,49.5c3.4-1,6-3.7,7.1-7.1c-1.4,0.8-3.2,1.4-5.3,1.8C43.9,46.3,43.3,48.2,42.4,49.5L42.4,49.5z"/>
	<path class="st0" d="M44.5,36.2c0.1,1,0.2,2,0.2,3.1c0,1-0.1,2.1-0.2,3.1c3.5-0.7,5.5-2,5.5-3.1S48,36.9,44.5,36.2z"/>
	<path class="st0" d="M29,42.4c1,3.4,3.7,6,7.1,7.1c-0.8-1.4-1.4-3.2-1.8-5.3C32.3,43.9,30.4,43.3,29,42.4L29,42.4z"/>
	<path class="st0" d="M29,36.1c1.4-0.8,3.2-1.4,5.3-1.8c0.4-2.1,1-3.9,1.8-5.3C32.8,30.1,30.1,32.8,29,36.1z"/>
	<path class="st0" d="M49.5,36.1c-1-3.4-3.7-6-7.1-7.1c0.8,1.4,1.4,3.2,1.8,5.3C46.3,34.7,48.2,35.3,49.5,36.1L49.5,36.1z"/>
	<path class="st1" d="M10.7,5.4c0,3-2.4,5.4-5.4,5.4S0,8.3,0,5.4S2.4,0,5.4,0S10.7,2.4,10.7,5.4"/>
	<path class="st1" d="M34.4,21.4h3.1v5.5c0.6-0.1,1.2-0.1,1.8-0.1c0.6,0,1.2,0.1,1.8,0.1v-7.3c0-1-0.8-1.8-1.8-1.8h-3.9
		c0.2-1.2,0.3-2.3,0.3-3.6c0-0.7-0.4-1.4-1.1-1.7l-8.9-3.6c-0.4-0.2-0.9-0.2-1.3,0l-8.9,3.6c-0.7,0.3-1.1,0.9-1.1,1.7
		c0,1.2,0.1,2.4,0.3,3.6H7.1v-5.6c-0.6,0.1-1.2,0.3-1.8,0.3s-1.2-0.1-1.8-0.3v7.4c0,1,0.8,1.8,1.8,1.8h10.2c1.2,3.2,3.3,6.1,6.2,8.5
		l2.1,1.8c0.3,0.3,0.7,0.4,1.2,0.4s0.8-0.1,1.2-0.4l2.1-1.8C31.1,27.5,33.2,24.6,34.4,21.4L34.4,21.4z M26.6,24
		c-0.3,0.5-0.7,0.9-1.3,1c-0.1,0-0.2,0-0.3,0c-0.5,0-0.9-0.2-1.3-0.5l-3.6-3.6c-0.7-0.7-0.7-1.8,0-2.5c0.7-0.7,1.8-0.7,2.5,0
		l1.8,1.8l2.5-4.9c0.4-0.9,1.5-1.2,2.4-0.8c0.9,0.4,1.2,1.5,0.8,2.4L26.6,24z"/>
</g>
</svg>
