<?xml version="1.0" encoding="utf-8"?>
<!-- Generator: Adobe Illustrator 24.3.0, SVG Export Plug-In . SVG Version: 6.00 Build 0)  -->
<svg version="1.1" id="Layer_1" xmlns="http://www.w3.org/2000/svg" xmlns:xlink="http://www.w3.org/1999/xlink" x="0px" y="0px"
	 viewBox="0 0 57.7 50" style="enable-background:new 0 0 57.7 50;" xml:space="preserve">
<style type="text/css">
	.st0{fill:#1C1D21;}
	.st1{fill:#F24B09;}
</style>
<g>
	<path class="st0" d="M50.8,0H28.9h-22C3,0,0.1,2.9,0,6.8v36.3c0,0.7,0.1,1.4,0.3,2.1C1.2,48,3.7,49.9,6.7,50h9.7h34.3
		c1.1,0,2.2-0.1,3.2-0.7c2.5-1.3,3.9-3.4,3.9-6.3V7C57.7,2.9,54.8,0,50.8,0L50.8,0z M50.1,3.5c1.2,0,2.2,1,2.2,2.2
		c0,1.2-1,2.2-2.2,2.2c-1.2,0-2.2-1-2.2-2.2C47.9,4.5,48.8,3.5,50.1,3.5z M42.4,3.5c1.2,0,2.2,1,2.2,2.2c0,1.2-1,2.2-2.2,2.2
		s-2.2-1-2.2-2.2C40.2,4.5,41.2,3.5,42.4,3.5z M34.7,3.5c1.2,0,2.2,1,2.2,2.2c0,1.2-1,2.2-2.2,2.2c-1.2,0-2.2-1-2.2-2.2
		C32.5,4.5,33.5,3.5,34.7,3.5z M53.9,12.2v30.9c0,1.9-1.2,3.1-3.1,3.1H6.9c-2,0-3.1-1.2-3.1-3.1v-31v-0.6h50.1L53.9,12.2L53.9,12.2z
		"/>
	<path class="st1" d="M39.3,19l-0.5-0.1c-0.7-0.1-1.3-0.1-1.9-0.3c-2.2-0.5-4.3-1.5-6.6-3.1C30,15.3,29.5,15,29,15s-1,0.3-1.3,0.6
		c-3.1,2.1-5.9,3.2-8.8,3.4c-0.7,0.1-2,0.4-2,2.1v8.8c-0.1,0.8-0.1,1.7,0.2,2.6c0.4,2,1.5,3.7,3.2,5.5c2.1,2.1,4.7,3.7,8,5
		c0.2,0.1,0.4,0.1,0.7,0.1c0.3,0,0.7-0.1,0.9-0.2l0.9-0.4c0.7-0.3,1.4-0.6,2.1-1c2.6-1.4,4.7-3.1,6.2-5.1c1.3-1.8,2.1-3.7,2.1-5.6
		c0.1-1.3,0.1-2.6,0.1-3.9V21C41.2,19.9,40.5,19.1,39.3,19z M38.1,30.6c-0.1,1.3-0.6,2.7-1.6,4c-1.2,1.7-2.9,3.1-5.1,4.2
		c-0.6,0.3-1.3,0.6-2,0.9c-0.2,0.1-0.4,0.2-0.6,0.2V29.2h-9.2v-7.4c3.1-0.3,6.1-1.5,9.3-3.7v11.1h9.3C38.1,29.7,38.1,30.1,38.1,30.6
		z"/>
</g>
</svg>
