<?xml version="1.0" encoding="utf-8"?>
<!-- Generator: Adobe Illustrator 24.3.0, SVG Export Plug-In . SVG Version: 6.00 Build 0)  -->
<svg version="1.1" id="Layer_1" xmlns="http://www.w3.org/2000/svg" xmlns:xlink="http://www.w3.org/1999/xlink" x="0px" y="0px"
	 viewBox="0 0 48.8 50" style="enable-background:new 0 0 48.8 50;" xml:space="preserve">
<style type="text/css">
	.st0{fill:#F24B09;}
	.st1{fill:#1C1D21;}
</style>
<g>
	<path class="st0" d="M8.5,41.5V22c0-0.3,0.1-0.6,0.4-0.9c0.2-0.2,0.5-0.4,0.9-0.4H39c0.3,0,0.6,0.1,0.9,0.4
		c0.2,0.2,0.4,0.5,0.4,0.9v19.5c0,0.3-0.1,0.6-0.4,0.9c-0.2,0.2-0.5,0.4-0.9,0.4H9.8c-0.3,0-0.6-0.1-0.9-0.4
		C8.7,42.1,8.5,41.8,8.5,41.5L8.5,41.5z M40,44.4L40,44.4c-0.2-0.3-0.6-0.5-1-0.5H9.8c-0.4,0-0.8,0.2-1,0.5l-2.4,3.7
		C6.1,48.5,6,49,6.3,49.4C6.5,49.7,6.9,50,7.3,50h34.1h0c0.4,0,0.9-0.3,1.1-0.6c0.2-0.4,0.2-0.9-0.1-1.2L40,44.4z"/>
	<path class="st1" d="M18.3,11h3v1.2h0c0,0.7,0.5,1.2,1.2,1.2c0.7,0,1.2-0.5,1.2-1.2V11h1.9v1.2c0,0.7,0.5,1.2,1.2,1.2
		c0.7,0,1.2-0.5,1.2-1.2V11h2.4c0.3,0,0.6-0.1,0.9-0.4c0.2-0.2,0.4-0.5,0.4-0.9V1.2c0-0.3-0.1-0.6-0.4-0.9C31.1,0.1,30.8,0,30.5,0
		H18.3c-0.3,0-0.6,0.1-0.9,0.4c-0.2,0.2-0.4,0.5-0.4,0.9v8.5c0,0.3,0.1,0.6,0.4,0.9C17.7,10.8,18,11,18.3,11L18.3,11z"/>
	<path class="st1" d="M47.6,0H35.4c-0.3,0-0.6,0.1-0.9,0.4c-0.2,0.2-0.4,0.5-0.4,0.9v8.5c0,0.3,0.1,0.6,0.4,0.9
		c0.2,0.2,0.5,0.4,0.9,0.4h3v4.9l-27.3,0V11h2.4c0.3,0,0.6-0.1,0.9-0.4s0.4-0.5,0.4-0.9V1.2c0-0.3-0.1-0.6-0.4-0.9S13.7,0,13.4,0
		H1.2C0.9,0,0.6,0.1,0.4,0.4S0,0.9,0,1.2v8.5c0,0.3,0.1,0.6,0.4,0.9S0.9,11,1.2,11h3v1.2c0,0.7,0.5,1.2,1.2,1.2
		c0.7,0,1.2-0.5,1.2-1.2V11h1.9v6.1c0,0.3,0.1,0.6,0.4,0.9c0.2,0.2,0.5,0.4,0.9,0.4h29.8c0.3,0,0.6-0.1,0.9-0.4
		c0.2-0.2,0.4-0.5,0.4-0.9c0-0.9,0-5.3,0-6.1h1.9v1.2c0,0.7,0.5,1.2,1.2,1.2c0.7,0,1.2-0.5,1.2-1.2V11h2.4c0.3,0,0.6-0.1,0.9-0.4
		s0.4-0.5,0.4-0.9V1.2c0-0.3-0.1-0.6-0.4-0.9S47.9,0,47.6,0L47.6,0z"/>
</g>
</svg>
