<?xml version="1.0" encoding="utf-8"?>
<!-- Generator: Adobe Illustrator 24.3.0, SVG Export Plug-In . SVG Version: 6.00 Build 0)  -->
<svg version="1.1" id="Layer_1" xmlns="http://www.w3.org/2000/svg" xmlns:xlink="http://www.w3.org/1999/xlink" x="0px" y="0px"
	 viewBox="0 0 42.7 50" style="enable-background:new 0 0 42.7 50;" xml:space="preserve">
<style type="text/css">
	.st0{fill:#1C1D21;}
	.st1{fill:#F24B09;}
</style>
<g>
	<path class="st0" d="M39,30.9H28.7c-1,0-1.9,0.4-2.6,1.1c-0.7,0.7-1.1,1.6-1.1,2.6v5.9c0,1,0.4,1.9,1.1,2.6
		c0.7,0.7,1.6,1.1,2.6,1.1h3.7v2.9h-2.2c-0.8,0-1.5,0.7-1.5,1.5s0.7,1.5,1.5,1.5h7.4c0.8,0,1.5-0.7,1.5-1.5s-0.7-1.5-1.5-1.5h-2.2
		v-2.9H39c1,0,1.9-0.4,2.6-1.1c0.7-0.7,1.1-1.6,1.1-2.6v-5.9c0-1-0.4-1.9-1.1-2.6C40.9,31.3,40,30.9,39,30.9z"/>
	<path class="st1" d="M11.7,17.6h18.4c1.5,0,3-0.5,4.1-1.6c1.1-1,1.8-2.5,1.9-4c0.1-1.6-0.5-3.2-1.6-4.3c-1.1-1.2-2.6-1.8-4.3-1.8
		c-0.2,0-0.4-0.1-0.5-0.3c-0.8-2.4-2.6-4.3-4.9-5.1c-2.3-0.9-4.9-0.6-7.1,0.7c-2.1,1.3-3.6,3.5-3.9,5.9c0,0.2-0.2,0.4-0.4,0.4h-1.5
		c-1.4,0-2.7,0.5-3.6,1.4c-1,0.9-1.5,2.2-1.6,3.6c0,1.4,0.5,2.7,1.5,3.6S10.3,17.6,11.7,17.6L11.7,17.6z"/>
	<path class="st0" d="M32.4,27.2c0,0.8,0.7,1.5,1.5,1.5c0.8,0,1.5-0.7,1.5-1.5c0-1.2-0.5-2.3-1.3-3.1c-0.8-0.8-1.9-1.3-3.1-1.3h-8.1
		v-1.5c0-0.8-0.7-1.5-1.5-1.5s-1.5,0.7-1.5,1.5v1.5H11c-1.2,0-2.3,0.5-3.1,1.3c-0.8,0.8-1.3,1.9-1.3,3.1c0,0.8,0.7,1.5,1.5,1.5
		s1.5-0.7,1.5-1.5c0-0.8,0.7-1.5,1.5-1.5h19.9c0.4,0,0.8,0.2,1,0.4S32.4,26.8,32.4,27.2z"/>
	<path class="st0" d="M14.7,30.9h-2.6c-0.9,0-1.8,0.4-2.4,1.2l-0.9,1.2h0c-0.3,0.4-0.7,0.6-1.2,0.6H2.9c-0.8,0-1.5,0.3-2.1,0.9
		C0.3,35.2,0,36,0,36.8v10.3c0,0.8,0.3,1.5,0.9,2.1C1.4,49.7,2.2,50,2.9,50h11.8c0.8,0,1.5-0.3,2.1-0.9c0.6-0.6,0.9-1.3,0.9-2.1
		V33.8c0-0.8-0.3-1.5-0.9-2.1C16.2,31.2,15.5,30.9,14.7,30.9L14.7,30.9z"/>
</g>
</svg>
