<?xml version="1.0" encoding="utf-8"?>
<!-- Generator: Adobe Illustrator 24.3.0, SVG Export Plug-In . SVG Version: 6.00 Build 0)  -->
<svg version="1.1" id="Layer_1" xmlns="http://www.w3.org/2000/svg" xmlns:xlink="http://www.w3.org/1999/xlink" x="0px" y="0px"
	 viewBox="0 0 48.3 50" style="enable-background:new 0 0 48.3 50;" xml:space="preserve">
<style type="text/css">
	.st0{fill:#F24B09;}
	.st1{fill:#1C1D21;}
</style>
<g>
	<path class="st0" d="M0,50h8.3v-5H0V50z M5,46.7h1.7v1.7H5V46.7z M1.7,46.7h1.7v1.7H1.7V46.7z"/>
	<path class="st0" d="M0,41.7h8.3v1.7H0V41.7z"/>
	<path class="st0" d="M20,50h8.3v-5H20V50z M25,46.7h1.7v1.7H25V46.7z M21.7,46.7h1.7v1.7h-1.7V46.7z"/>
	<path class="st0" d="M20,41.7h8.3v1.7H20V41.7z"/>
	<path class="st0" d="M40,50h8.3v-5H40V50z M45,46.7h1.7v1.7H45V46.7z M41.7,46.7h1.7v1.7h-1.7V46.7z"/>
	<path class="st0" d="M40,41.7h8.3v1.7H40V41.7z"/>
	<path class="st1" d="M15.8,10h3.3v3.3h-3.3V10z"/>
	<path class="st1" d="M15.8,20h3.3v3.3h-3.3V20z"/>
	<path class="st1" d="M20.8,10h3.3v3.3h-3.3V10z"/>
	<path class="st1" d="M20.8,20h1.7v3.3h-1.7V20z"/>
	<path class="st1" d="M15.8,15h3.3v3.3h-3.3V15z"/>
	<path class="st1" d="M22.5,17.5c0-0.5,0.4-0.8,0.8-0.8h0.8V15h-3.3v3.3h1.7V17.5z"/>
	<path class="st1" d="M5,36.7h18.3v4.2H25v-4.2h18.3v4.2H45v-5c0-0.2-0.1-0.4-0.2-0.6c-0.2-0.2-0.4-0.2-0.6-0.2H25v-5h12.5v-1.7h-5
		v-10h-8.3v10h-1.7V25h-1.7v3.3h-1.7V25h-3.3v3.3h-5V30h12.5v5H4.2c-0.5,0-0.8,0.4-0.8,0.8v5H5V36.7z M29.2,20h1.7v1.7h-1.7V20z
		 M29.2,23.3h1.7V25h-1.7V23.3z M25.8,20h1.7v1.7h-1.7V20z M25.8,23.3h1.7V25h-1.7V23.3z"/>
	<path class="st1" d="M38.2,6c0.6,0.6,1,1.5,1,2.4v0.7h1.7V8.4c0-1.4-0.5-2.6-1.5-3.6c-1-1-2.3-1.5-3.6-1.5H35V5h0.7
		C36.6,5,37.5,5.4,38.2,6z"/>
	<path class="st1" d="M40.7,3.5c1.2,1.2,1.8,2.8,1.8,4.4v1.2h1.7V7.9c0-2.1-0.8-4.1-2.3-5.6C40.3,0.8,38.3,0,36.2,0H35v1.7h1.2
		C37.9,1.7,39.5,2.3,40.7,3.5L40.7,3.5z"/>
	<path class="st1" d="M7.5,8.4v0.7h1.7V8.4c0-0.9,0.4-1.8,1-2.4c0.6-0.6,1.5-1,2.4-1h0.7V3.3h-0.7C11.2,3.3,10,3.9,9,4.8
		C8,5.8,7.5,7.1,7.5,8.4z"/>
	<path class="st1" d="M5.8,7.9c0-1.7,0.7-3.3,1.8-4.4c1.2-1.2,2.8-1.8,4.4-1.8h1.2V0h-1.2C10,0,8,0.8,6.5,2.3C5,3.8,4.2,5.8,4.2,7.9
		v1.2h1.7L5.8,7.9z"/>
</g>
</svg>
