<?xml version="1.0" encoding="utf-8"?>
<!-- Generator: Adobe Illustrator 24.3.0, SVG Export Plug-In . SVG Version: 6.00 Build 0)  -->
<svg version="1.1" id="Layer_1" xmlns="http://www.w3.org/2000/svg" xmlns:xlink="http://www.w3.org/1999/xlink" x="0px" y="0px"
	 viewBox="0 0 58.1 50" style="enable-background:new 0 0 58.1 50;" xml:space="preserve">
<style type="text/css">
	.st0{fill-rule:evenodd;clip-rule:evenodd;fill:#1C1D21;}
	.st1{fill-rule:evenodd;clip-rule:evenodd;fill:#F24B09;}
</style>
<path class="st0" d="M23.5,35.5v5.6c0,0.5-0.4,0.9-0.9,0.9h-3.3c-0.5,0-0.9-0.4-0.9-0.9v-5.6c0-0.5,0.4-0.9,0.9-0.9h3.3
	C23.1,34.6,23.5,35,23.5,35.5z M0.8,44.3h56.4c0.4,0,0.8,0.4,0.8,0.8v4.1c0,0.4-0.4,0.8-0.8,0.8H0.8C0.4,50,0,49.6,0,49.2v-4.1
	C0,44.6,0.4,44.3,0.8,44.3z M3.4,4.2h3.3c0.5,0,0.9,0.4,0.9,0.9v5.6c0,0.5-0.4,0.9-0.9,0.9H3.4c-0.5,0-0.9-0.4-0.9-0.9V5.1
	C2.5,4.6,2.9,4.2,3.4,4.2z M7.5,31.3v5.6c0,0.5-0.4,0.9-0.9,0.9H3.4c-0.5,0-0.9-0.4-0.9-0.9v-5.6c0-0.5,0.4-0.9,0.9-0.9h3.3
	C7.1,30.4,7.5,30.8,7.5,31.3z M51.4,0h3.3c0.5,0,0.9,0.4,0.9,0.9v5.6c0,0.5-0.4,0.9-0.9,0.9h-3.3c-0.5,0-0.9-0.4-0.9-0.9V0.9
	C50.5,0.4,50.9,0,51.4,0z M55.5,35.5v5.6c0,0.5-0.4,0.9-0.9,0.9h-3.3c-0.5,0-0.9-0.4-0.9-0.9v-5.6c0-0.5,0.4-0.9,0.9-0.9h3.3
	C55.1,34.6,55.5,35,55.5,35.5L55.5,35.5z M35.4,4.2h3.3c0.5,0,0.9,0.4,0.9,0.9v5.6c0,0.5-0.4,0.9-0.9,0.9h-3.3
	c-0.5,0-0.9-0.4-0.9-0.9V5.1C34.5,4.6,34.9,4.2,35.4,4.2z M39.5,31.3v5.6c0,0.5-0.4,0.9-0.9,0.9h-3.3c-0.5,0-0.9-0.4-0.9-0.9v-5.6
	c0-0.5,0.4-0.9,0.9-0.9h3.3C39.1,30.4,39.5,30.8,39.5,31.3z M19.4,0h3.3c0.5,0,0.9,0.4,0.9,0.9v5.6c0,0.5-0.4,0.9-0.9,0.9h-3.3
	c-0.5,0-0.9-0.4-0.9-0.9V0.9C18.5,0.4,18.9,0,19.4,0L19.4,0z"/>
<path class="st1" d="M1.7,13.8h6.8c0.9,0,1.6,0.7,1.6,1.6v11c0,0.9-0.7,1.6-1.6,1.6H1.7c-0.9,0-1.6-0.7-1.6-1.6v-11
	C0,14.6,0.8,13.8,1.7,13.8z"/>
<path class="st1" d="M49.6,9.6h6.8c0.9,0,1.6,0.7,1.6,1.6v19.5c0,0.9-0.7,1.6-1.6,1.6h-6.8c-0.9,0-1.6-0.7-1.6-1.6V11.2
	C48,10.3,48.8,9.6,49.6,9.6z"/>
<path class="st1" d="M33.6,13.8h6.8c0.9,0,1.6,0.7,1.6,1.6v11c0,0.9-0.7,1.6-1.6,1.6h-6.8c-0.9,0-1.6-0.7-1.6-1.6v-11
	C32,14.6,32.8,13.8,33.6,13.8L33.6,13.8z"/>
<path class="st1" d="M17.7,9.6h6.8c0.9,0,1.6,0.7,1.6,1.6v19.5c0,0.9-0.7,1.6-1.6,1.6h-6.8c-0.9,0-1.6-0.7-1.6-1.6V11.2
	C16,10.4,16.8,9.6,17.7,9.6L17.7,9.6z"/>
</svg>
