<?xml version="1.0" encoding="utf-8"?>
<!-- Generator: Adobe Illustrator 24.3.0, SVG Export Plug-In . SVG Version: 6.00 Build 0)  -->
<svg version="1.1" id="Layer_1" xmlns="http://www.w3.org/2000/svg" xmlns:xlink="http://www.w3.org/1999/xlink" x="0px" y="0px"
	 viewBox="0 0 48.3 50" style="enable-background:new 0 0 48.3 50;" xml:space="preserve">
<style type="text/css">
	.st0{fill:#1C1D21;}
	.st1{fill:#F24B09;}
</style>
<g>
	<path class="st0" d="M47.6,36.3L27.9,2.2C27.1,0.8,25.7,0,24.2,0c-1.5,0-3,0.8-3.8,2.2l-5,8.6c0.6-0.2,1.1-0.3,1.7-0.4l4.4-7.6
		c0.5-0.9,1.6-1.5,2.6-1.5c1.1,0,2.1,0.6,2.6,1.5L46.5,37l0,0c0.3,0.5,0.5,1.1,0.5,1.7c0,1.7-1.4,3.1-3.1,3.1h-2.5l1.3,1.3H44
		c2.4,0,4.3-1.9,4.3-4.3C48.3,37.8,48.1,37,47.6,36.3L47.6,36.3z"/>
	<path class="st0" d="M4.3,41.7c-1.1,0-2.1-0.6-2.6-1.5c-0.5-0.9-0.5-2.1,0-3.1l4.5-7.9c-0.2-0.5-0.4-1.1-0.5-1.7l-5.1,8.9
		c-0.8,1.3-0.8,3,0,4.3S2.8,43,4.3,43h28.9L32,41.7L4.3,41.7L4.3,41.7z"/>
	<path class="st0" d="M24.1,8.6c-1.1,0-2,0.9-2,2c1.5,0.3,2.8,0.8,4.1,1.5l0-1.4c0,0,0-0.1,0-0.1C26.2,9.4,25.2,8.5,24.1,8.6
		L24.1,8.6z"/>
	<path class="st0" d="M22.6,37.8c0.1,0.8,0.8,1.4,1.7,1.3c0.9-0.1,1.5-0.8,1.4-1.7l-0.1-0.8C24.7,37.2,23.7,37.6,22.6,37.8
		L22.6,37.8z"/>
	<path class="st1" d="M44.3,45.9L31.1,32.7c1.7-2.4,2.7-5.3,2.7-8.5c0-8-6.5-14.6-14.6-14.6c-8,0-14.6,6.5-14.6,14.6
		c0,8,6.5,14.6,14.6,14.6c3.2,0,6.1-1,8.5-2.7l13.2,13.2c0.5,0.5,1.1,0.7,1.7,0.7c0.6,0,1.2-0.2,1.7-0.7
		C45.3,48.4,45.3,46.8,44.3,45.9L44.3,45.9z M6,24.2c0-7.3,6-13.3,13.3-13.3s13.3,6,13.3,13.3c0,7.3-6,13.3-13.3,13.3
		C11.9,37.5,6,31.6,6,24.2z"/>
	<path class="st0" d="M23.5,29.8c1.1,0,2-0.8,2-1.9L25.9,14c-1.4-0.9-3.1-1.6-4.9-1.8l0.5,15.7C21.6,28.9,22.4,29.8,23.5,29.8
		L23.5,29.8z"/>
	<path class="st0" d="M23.7,32.9c-1.1-0.1-2,0.7-2.1,1.8l-0.1,1.5c1.5-0.3,2.8-0.8,4.1-1.5l0,0C25.4,33.8,24.7,33,23.7,32.9
		L23.7,32.9z"/>
	<path class="st0" d="M13.6,13.4c-1.1,0.6-2.1,1.3-2.9,2.1l-3.2,5.6c-0.3,1-0.4,2-0.4,3.1c0,0.2,0,0.3,0,0.5L13.6,13.4z"/>
</g>
</svg>
