<?xml version="1.0" encoding="utf-8"?>
<!-- Generator: Adobe Illustrator 24.3.0, SVG Export Plug-In . SVG Version: 6.00 Build 0)  -->
<svg version="1.1" id="Layer_1" xmlns="http://www.w3.org/2000/svg" xmlns:xlink="http://www.w3.org/1999/xlink" x="0px" y="0px"
	 viewBox="0 0 37.5 50" style="enable-background:new 0 0 37.5 50;" xml:space="preserve">
<style type="text/css">
	.st0{fill:#F24B09;}
	.st1{fill:#1C1D21;}
</style>
<path class="st0" d="M13.6,8.9c2.4,0,4.3-2,4.3-4.5C17.9,2,16,0,13.6,0c-2.3,0-4.3,2-4.3,4.5C9.4,6.9,11.3,8.9,13.6,8.9z"/>
<path class="st0" d="M25.5,8.5l0.7,0.7v9.6h2.1v-7.7l1.4,1.3c0.2,0.2,0.5,0.3,0.7,0.3c0.3,0,0.6-0.1,0.8-0.3
	c0.4-0.4,0.4-1.1-0.1-1.5l-4.2-4l-1.7-1.5c-0.4-0.4-1.1-0.3-1.5,0.1C23.3,6,23.4,6.7,23.8,7L25.5,8.5z"/>
<path class="st0" d="M13.5,9.9c-4.1,0-7.6,2.8-8.9,6.7h17.8C21.2,12.8,17.7,9.9,13.5,9.9L13.5,9.9z"/>
<path class="st1" d="M33.3,41.7h-1V27.1h1c2.3,0,4.2-1.9,4.2-4.2c0-2.3-1.9-4.2-4.2-4.2H4.2c-2.3,0-4.2,1.9-4.2,4.2
	c0,2.3,1.9,4.2,4.2,4.2h1v14.6h-1c-2.3,0-4.2,1.9-4.2,4.2C0,48.1,1.9,50,4.2,50h29.2c2.3,0,4.2-1.9,4.2-4.2
	C37.5,43.5,35.6,41.7,33.3,41.7L33.3,41.7z"/>
</svg>
