<?xml version="1.0" encoding="utf-8"?>
<!-- Generator: Adobe Illustrator 24.3.0, SVG Export Plug-In . SVG Version: 6.00 Build 0)  -->
<svg version="1.1" id="Layer_1" xmlns="http://www.w3.org/2000/svg" xmlns:xlink="http://www.w3.org/1999/xlink" x="0px" y="0px"
	 viewBox="0 0 44.7 50" style="enable-background:new 0 0 44.7 50;" xml:space="preserve">
<style type="text/css">
	.st0{fill:#1C1D21;}
	.st1{fill:#F24B09;}
</style>
<path class="st0" d="M6.1,33.2L0,50h10.7l2.7-6.2c0.1-0.2,0.2-0.3,0.4-0.3l12.8-0.1h0.1c1.3,0.2,2.6,0,3.8-0.4l6.8-2l7.1-9.4
	c0.3-0.4,0.5-1,0.4-1.5c-0.1-0.5-0.4-1-0.9-1.3c-0.4-0.2-0.8-0.3-1.2-0.3c-0.4,0.1-0.8,0.3-1.1,0.6L34.7,36v0
	c-0.1,0.1-0.1,0.1-0.2,0.1l-4.8,0.7h-0.1l-8.4-1.7L17,36.2c-0.1,0-0.2,0-0.3,0c-0.1-0.1-0.2-0.1-0.2-0.3c0-0.1,0-0.2,0-0.3
	c0.1-0.1,0.2-0.2,0.3-0.2l4.1-1.2H21v0c0,0,0.1,0,0.1,0l7.2,1.4c0.4,0.1,0.9,0,1.2-0.2c0.4-0.2,0.7-0.5,0.8-0.9
	c0.2-0.5,0.2-1-0.1-1.5c-0.2-0.5-0.6-0.8-1.1-0.9l-7.6-2.2C14.2,27.9,8.8,29,6.1,33.2L6.1,33.2z"/>
<path class="st1" d="M19.7,9.6c0-2.2,0.8-4.3,2.1-6h-0.4c-6,0-10.8,4.3-10.8,9.6c0,2.6,1.2,5,3.1,6.7l-2.5,4l5.8-2v0
	c1.4,0.6,2.9,0.8,4.4,0.8c2.9,0,5.6-1,7.8-2.9C23.8,19,19.7,14.7,19.7,9.6L19.7,9.6z"/>
<path class="st1" d="M41.5,20.3l-2.5-4c1.9-1.7,3.1-4.1,3.1-6.7c0-5.3-4.8-9.6-10.8-9.6S20.5,4.3,20.5,9.6s4.8,9.6,10.8,9.6
	c1.5,0,3-0.3,4.4-0.8L41.5,20.3z"/>
</svg>
