<?xml version="1.0" encoding="utf-8"?>
<!-- Generator: Adobe Illustrator 24.3.0, SVG Export Plug-In . SVG Version: 6.00 Build 0)  -->
<svg version="1.1" id="Layer_1" xmlns="http://www.w3.org/2000/svg" xmlns:xlink="http://www.w3.org/1999/xlink" x="0px" y="0px"
	 viewBox="0 0 88.5 50" style="enable-background:new 0 0 88.5 50;" xml:space="preserve">
<style type="text/css">
	.st0{fill-rule:evenodd;clip-rule:evenodd;fill:#3A658C;}
</style>
<path class="st0" d="M43.4,43.1c-2.5,1.9-5.4,3.3-8.4,4.2C29.3,49,23.1,48.9,17.4,47c-0.2-0.1-0.3-0.1-0.5-0.2l0,0l-9.6,3.1L7,50
	c-0.2,0-0.3,0-0.5-0.1c-0.3-0.1-0.6-0.3-0.7-0.7c-0.1-0.2-0.1-0.3-0.1-0.5l0.3-9.2c0,0,0,0-0.1-0.1c-3.5-4-5.8-9.1-6-14.4
	c-0.2-3.7,0.6-7.5,2.3-10.8c2-4.1,5.2-7.6,9.1-10C15.9,1.5,21.2,0,26.5,0h0.1C33,0,39.3,2.1,44.3,6.1c0.8-0.7,1.7-1.3,2.6-1.8
	c4.5-2.8,9.7-4.2,15-4.2h0.1c6.8,0,13.5,2.4,18.6,6.9c4.2,3.7,7.1,8.9,7.8,14.5c0.8,6.1-1.1,12.5-5.1,17.4c-0.2,0.3-0.5,0.6-0.7,0.8
	l0.3,9.2l0,0.2c-0.1,0.2-0.1,0.3-0.2,0.5C82.3,49.8,82,50,81.7,50c-0.2,0-0.3,0-0.5,0l-9.6-3.1c-7.9,2.8-16.8,2-23.9-2.1
	c-1.2-0.7-2.3-1.5-3.4-2.4l-0.1,0.1C43.9,42.7,43.7,42.9,43.4,43.1L43.4,43.1z M46,40.8c2.5,1.9,5.4,3.4,8.5,4.3
	c5.4,1.6,11.3,1.4,16.6-0.6l0,0c0.2-0.1,0.3-0.1,0.5-0.1c0.1,0,0.2,0,0.3,0.1l8.4,2.7l-0.2-8l0-0.2c0.2-0.6,0.7-1,1.1-1.5
	c2.9-3.4,4.7-7.7,4.9-12.2c0.2-3.3-0.5-6.7-1.9-9.7C81.6,10,76.4,5.8,70.5,3.7c-2.7-0.9-5.6-1.4-8.4-1.4h-0.2
	c-5.7,0-11.3,1.8-15.8,5.3c3.8,3.7,6.4,8.6,7.1,13.8c0.6,4.8-0.4,9.7-2.8,13.9C49.1,37.4,47.7,39.2,46,40.8L46,40.8z M48.2,34.3
	L42.1,37c0.7,0.8,1.4,1.6,2.1,2.3C45.8,37.8,47.2,36.2,48.2,34.3z M50.6,27.9l-11.1,4.9c0.3,0.6,0.6,1.2,0.9,1.7
	c0.2,0.3,0.4,0.6,0.6,1l8.5-3.8c0.1-0.3,0.2-0.6,0.3-0.9C50.2,29.8,50.4,28.9,50.6,27.9L50.6,27.9z M50.9,22.9l-12.8,5.7
	c0.2,0.8,0.4,1.7,0.7,2.5l12.1-5.3C50.9,24.7,50.9,23.8,50.9,22.9L50.9,22.9z M50,18.1l-12.4,5.5c0,0.3,0,0.7,0,1
	c0,0.7,0.1,1.4,0.1,2.1l12.9-5.7C50.5,20,50.3,19,50,18.1L50,18.1z M48.1,14l-9.6,4.2c-0.3,1.1-0.6,2.1-0.8,3.2l11.5-5.1
	c-0.2-0.4-0.3-0.8-0.5-1.1C48.6,14.8,48.3,14.4,48.1,14L48.1,14z M45.4,10.3l-3.6,1.6c-0.9,1.2-1.7,2.4-2.3,3.8l7.5-3.3
	C46.5,11.6,46,11,45.4,10.3L45.4,10.3z"/>
</svg>
