<?xml version="1.0" encoding="utf-8"?>
<!-- Generator: Adobe Illustrator 24.3.0, SVG Export Plug-In . SVG Version: 6.00 Build 0)  -->
<svg version="1.1" id="Layer_1" xmlns="http://www.w3.org/2000/svg" xmlns:xlink="http://www.w3.org/1999/xlink" x="0px" y="0px"
	 viewBox="0 0 49.5 50" style="enable-background:new 0 0 49.5 50;" xml:space="preserve">
<style type="text/css">
	.st0{fill-rule:evenodd;clip-rule:evenodd;fill:#1C1D21;}
	.st1{fill-rule:evenodd;clip-rule:evenodd;fill:#F24B09;}
</style>
<path class="st0" d="M18.8,17.4c0,5,4.1,9.1,9.1,9.1s9.1-4.1,9.1-9.1h10.2v2.6L44,21.3c-0.4,1.7-1.1,3.3-2,4.8l1.4,3.1l-1.7,1.7
	l-2.9,1.7l-2.3-1c-1.5,0.9-3.1,1.6-4.7,2c-0.3-1-1.5-2.2-2.5-2.4c-2.8-0.5-5.5-1.5-7.7-2.3c-3.7-1.3-5-1.6-8.6,0.5l-0.3,0.1
	l-0.3-0.3l1.4-3.1c-0.9-1.5-1.6-3.1-2-4.8l-3.2-1.2v-2.6L18.8,17.4L18.8,17.4z M27.9,0c2,0,3.6,1.6,3.6,3.6s-1.6,3.6-3.6,3.6
	s-3.6-1.6-3.6-3.6C24.3,1.6,25.9,0,27.9,0z M21.7,14.6h12.4c0.5,0,0.8-0.4,0.7-0.9c-0.7-3.1-3.6-5.5-6.9-5.5c-3.4,0-6.2,2.3-6.9,5.5
	C20.8,14.1,21.2,14.6,21.7,14.6L21.7,14.6z M39,0c2,0,3.6,1.6,3.6,3.6S41,7.2,39,7.2s-3.6-1.6-3.6-3.6C35.4,1.6,37,0,39,0L39,0z
	 M36.3,14.6c0.1-0.4,0.2-0.8,0-1.3c-0.3-1.3-0.9-2.5-1.8-3.5c1.2-1,2.7-1.5,4.4-1.5c3.4,0,6.2,2.3,6.9,5.5c0.1,0.5-0.2,0.9-0.7,0.9
	L36.3,14.6z M10.5,14.6c-0.5,0-0.8-0.4-0.7-0.9c0.7-3.1,3.6-5.5,6.9-5.5c1.7,0,3.2,0.6,4.4,1.5c-0.8,1-1.4,2.2-1.8,3.5
	c-0.1,0.4-0.1,0.9,0,1.3L10.5,14.6z M16.7,0c2,0,3.6,1.6,3.6,3.6s-1.6,3.6-3.6,3.6c-2,0-3.6-1.6-3.6-3.6C13.1,1.6,14.7,0,16.7,0z
	 M33,17.4H22.8c0,2.8,2.3,5.1,5.1,5.1C30.7,22.5,33,20.3,33,17.4L33,17.4z"/>
<path class="st1" d="M12.8,46.5L5.2,32.9C4.8,32.3,4,32,3.3,32.4l-2.6,1.5c-0.7,0.4-0.9,1.2-0.5,1.9l7.7,13.6
	c0.4,0.7,1.2,0.9,1.9,0.5l2.6-1.5C13,48,13.2,47.1,12.8,46.5z M3.7,36.8c-0.5,0.1-1-0.3-1.1-0.8c-0.1-0.5,0.3-1,0.8-1.1
	c0.5-0.1,1,0.3,1.1,0.8C4.5,36.3,4.2,36.7,3.7,36.8z"/>
<path class="st1" d="M28,36.4c1.1,0.1,2-0.2,2.3-1.3c0.3-1-0.4-2-1.3-2.3c-2.9-0.5-5.7-1.5-7.9-2.3c-3.2-1.2-4.1-1.4-7.2,0.4l-6,3.4
	l4.8,8.5l0.7-0.4c0.2-0.1,0.4-0.1,0.6-0.1l12.7,3.4c1.9,0.5,3,0.2,4.6-0.7l17.4-10.7c0.9-0.6,1-2.1,0.5-2.9
	c-1.2-1.9-4.4-0.3-5.7,0.5l-9.6,5.6c-1.9,1.1-4,1.2-6.1,0.6c-2.2-0.4-4.3-1.1-6.4-1.7c-0.4-0.1-0.7-0.6-0.6-1c0.1-0.4,0.6-0.7,1-0.6
	C23.8,35.3,25.9,36,28,36.4L28,36.4z"/>
</svg>
