<?xml version="1.0" encoding="utf-8"?>
<!-- Generator: Adobe Illustrator 24.3.0, SVG Export Plug-In . SVG Version: 6.00 Build 0)  -->
<svg version="1.1" id="Layer_1" xmlns="http://www.w3.org/2000/svg" xmlns:xlink="http://www.w3.org/1999/xlink" x="0px" y="0px"
	 viewBox="0 0 53.6 50" style="enable-background:new 0 0 53.6 50;" xml:space="preserve">
<style type="text/css">
	.st0{fill:#1C1D21;}
	.st1{fill:#F24B09;}
</style>
<path class="st0" d="M5.4,45.5v2c0,0.1,0.1,0.2,0.2,0.2c0.1,0.1,0.3,0.1,0.4,0l4.6-2.9h0c0.1,0,0.1-0.1,0.1-0.2
	c0-0.1-0.1-0.2-0.1-0.2L6,41.5c-0.1,0-0.1-0.1-0.2-0.1c-0.1,0-0.1,0-0.2,0.1c-0.1,0-0.2,0.1-0.2,0.2v2H3.6c-0.5,0-0.9-0.2-1.3-0.5
	C2,42.9,1.8,42.4,1.8,42V27.7c0-0.5,0.2-0.9,0.5-1.3c0.3-0.3,0.8-0.5,1.3-0.5h8.9v2.7c0,0.5,0.2,0.9,0.5,1.3
	c0.3,0.3,0.8,0.5,1.3,0.5h25c0.5,0,0.9-0.2,1.3-0.5c0.3-0.3,0.5-0.8,0.5-1.3v-7.1c0-0.5-0.2-0.9-0.5-1.3c-0.3-0.3-0.8-0.5-1.3-0.5
	h-25c-0.5,0-0.9,0.2-1.3,0.5c-0.3,0.3-0.5,0.8-0.5,1.3v2.7H3.6c-0.9,0-1.9,0.4-2.5,1c-0.7,0.7-1,1.6-1,2.5V42c0,0.9,0.4,1.9,1,2.5
	c0.7,0.7,1.6,1,2.5,1L5.4,45.5z M19.6,21.4h8c0.5,0,0.9,0.4,0.9,0.9c0,0.5-0.4,0.9-0.9,0.9h-8c-0.5,0-0.9-0.4-0.9-0.9
	S19.1,21.4,19.6,21.4z M15.2,21.4h0.9c0.5,0,0.9,0.4,0.9,0.9c0,0.5-0.4,0.9-0.9,0.9h-0.9c-0.5,0-0.9-0.4-0.9-0.9
	S14.7,21.4,15.2,21.4L15.2,21.4z"/>
<path class="st0" d="M39.3,39.3h-25c-0.5,0-0.9,0.2-1.3,0.5c-0.3,0.3-0.5,0.8-0.5,1.3v7.1c0,0.5,0.2,0.9,0.5,1.3
	c0.3,0.3,0.8,0.5,1.3,0.5h25c0.5,0,0.9-0.2,1.3-0.5c0.3-0.3,0.5-0.8,0.5-1.3v-7.1c0-0.5-0.2-0.9-0.5-1.3
	C40.2,39.5,39.8,39.3,39.3,39.3L39.3,39.3z M16.1,42.9h-0.9c-0.5,0-0.9-0.4-0.9-0.9c0-0.5,0.4-0.9,0.9-0.9h0.9
	c0.5,0,0.9,0.4,0.9,0.9C17,42.5,16.6,42.9,16.1,42.9z M27.7,42.9h-8c-0.5,0-0.9-0.4-0.9-0.9c0-0.5,0.4-0.9,0.9-0.9h8
	c0.5,0,0.9,0.4,0.9,0.9C28.6,42.5,28.2,42.9,27.7,42.9z"/>
<path class="st1" d="M50,4.5h-8.9V1.8c0-0.5-0.2-0.9-0.5-1.3C40.2,0.2,39.8,0,39.3,0h-25c-0.5,0-0.9,0.2-1.3,0.5
	c-0.3,0.3-0.5,0.8-0.5,1.3v7.1c0,0.5,0.2,0.9,0.5,1.3c0.3,0.3,0.8,0.5,1.3,0.5h25c0.5,0,0.9-0.2,1.3-0.5c0.3-0.3,0.5-0.8,0.5-1.3
	V6.2H50c0.5,0,0.9,0.2,1.3,0.5c0.3,0.3,0.5,0.8,0.5,1.3v14.3c0,0.5-0.2,0.9-0.5,1.3c-0.3,0.3-0.8,0.5-1.3,0.5h-1.8v-2
	c0-0.1-0.1-0.2-0.2-0.2c-0.1,0-0.1-0.1-0.2-0.1c-0.1,0-0.2,0-0.2,0.1L43,24.8c-0.1,0-0.1,0.1-0.1,0.2c0,0.1,0.1,0.2,0.1,0.2l4.6,2.9
	l0,0c0.1,0.1,0.3,0.1,0.4,0c0.1,0,0.2-0.1,0.2-0.2v-2H50c0.9,0,1.9-0.4,2.5-1c0.7-0.7,1-1.6,1-2.5V8c0-0.9-0.4-1.9-1-2.5
	C51.9,4.8,50.9,4.5,50,4.5L50,4.5z M16.1,3.6h-0.9c-0.5,0-0.9-0.4-0.9-0.9c0-0.5,0.4-0.9,0.9-0.9h0.9c0.5,0,0.9,0.4,0.9,0.9
	C17,3.2,16.6,3.6,16.1,3.6z M27.7,3.6h-8c-0.5,0-0.9-0.4-0.9-0.9c0-0.5,0.4-0.9,0.9-0.9h8c0.5,0,0.9,0.4,0.9,0.9
	C28.6,3.2,28.2,3.6,27.7,3.6z"/>
<path class="st1" d="M0.9,6.2h4.5v2c0,0.1,0.1,0.2,0.2,0.2c0.1,0.1,0.3,0.1,0.4,0l4.6-2.9c0.1,0,0.1-0.1,0.1-0.2
	c0-0.1-0.1-0.2-0.1-0.2L6,2.2c-0.1,0-0.1-0.1-0.2-0.1c-0.1,0-0.1,0-0.2,0.1c-0.1,0-0.2,0.1-0.2,0.2v2H0.9C0.4,4.5,0,4.9,0,5.4
	C0,5.9,0.4,6.3,0.9,6.2L0.9,6.2z"/>
</svg>
