<?xml version="1.0" encoding="utf-8"?>
<!-- Generator: Adobe Illustrator 24.3.0, SVG Export Plug-In . SVG Version: 6.00 Build 0)  -->
<svg version="1.1" id="Layer_1" xmlns="http://www.w3.org/2000/svg" xmlns:xlink="http://www.w3.org/1999/xlink" x="0px" y="0px"
	 viewBox="0 0 63.4 50" style="enable-background:new 0 0 63.4 50;" xml:space="preserve">
<style type="text/css">
	.st0{fill:#1C1D21;}
	.st1{fill:#F24B09;}
</style>
<g>
	<path class="st0" d="M61.9,14.5c-5.2,0-10.5-0.4-15.8-0.3v0c1-1.2,1.6-2.8,1.8-4.3c0.2-1.6-0.1-3.2-0.8-4.6
		c-2.4-4.8-8.3-6.7-12.8-3.5C32,3.4,30.5,6,30.3,8.8c0,1.4,0.4,2.8,1.2,4C25.2,12,18.9,13.1,13.4,16c-0.5,0.3-0.8,0.9-0.7,1.5
		c0.1,0.6,0.5,1.1,1.1,1.3c2.1,0.6,4.2,1.1,6.4,1.5c-0.9,0.6-1.7,1.2-2.6,1.8c-1.1-0.2-2.1-0.2-3.2-0.3c-1.5,0-3.1-0.2-4.6-0.4
		c-0.6-0.2-1.2,0.1-1.5,0.6c-0.4,0.3-0.8,0.7-1.1,1.1c-0.7,0.7-1.4,1.4-2,2.3C5,25.6,5,25.9,5,26.1c-0.2,0.5-0.1,1,0.3,1.4
		c1.2,1.3,2.3,2.8,3.3,4.3c-1.1-0.2-2.2-0.3-3.3-0.3c-0.4,0-0.8,0.2-1.1,0.5c-0.3,0.3-0.3,0.8-0.2,1.2c0.2,0.7,0.4,1.4,0.8,2.1
		c-0.9,0.4-1.8,0.8-2.8,1.2h0c-0.5,0.1-0.9,0.5-1,1c-0.1,0.5,0,1,0.4,1.4C1.6,39.2,2,39.6,2.4,40C1,41.7-0.2,43.7,0,45.8
		c0,0.5,0.3,1,0.7,1.2c0.4,0.3,1,0.3,1.4,0c1.4-0.6,2.9-0.9,4.5-1c0.6,1.1,1.1,2.2,1.8,3.2v0c0.3,0.5,0.9,0.8,1.5,0.7
		c0.6-0.1,1.1-0.5,1.3-1.1c0.2-0.5,0.4-0.9,0.7-1.3c0.5,0.7,1.1,1.3,1.8,1.8c0.6,0.6,1.6,0.6,2.3,0c0.9-1.1,2-2.1,2.8-3.3
		c0.6,0.8,1.3,1.6,2,2.4v0c0.4,0.5,1.2,0.6,1.8,0.4c0.1,0,0.2,0,0.4,0c0.1,0,0.3,0,0.4,0l0.2-0.1c0.2-0.1,0.5-0.2,0.7-0.3
		c0.5-0.3,1.1-0.7,1.6-1l1.7-1.1l0.3-0.2l0.4-0.3l0.2-0.2h0c0.4-0.3,0.7-0.7,0.7-1.2c0-1.3-0.1-2.5,0-3.8c0.1-0.9,0.1-1.7,0-2.6
		c2.7-1.8,5.5-3.6,8.2-5.3c2.6-1.8,5.3-3.4,8.1-4.9c5.5-2.9,12.5-5.6,16.8-10.5C63.8,17,63.7,14.5,61.9,14.5L61.9,14.5z M37,3.8
		c3.1-1.6,6.9,0.7,7.7,4h0c0.2,0.9,0.2,1.8,0,2.6c-0.1,0.5-0.4,0.9-0.6,1.3c0,0.1-0.1,0.1-0.1,0.2L43.8,12c-0.9,1.3-2.3,2.1-3.8,2.3
		c-1.5,0.2-3.1-0.2-4.3-1.2c-1.1-1.2-2.3-2.6-2.3-4.3C33.5,6.8,35.2,4.7,37,3.8L37,3.8z M14.4,25.1c-1.3,1.2-2.5,2.6-3.4,4.2
		c-0.8-1.1-1.7-2.1-2.7-3.1c0.3-0.4,0.6-0.8,1-1.1l0.6-0.7l0,0c1.2,0.3,2.4,0.4,3.6,0.5L14.4,25.1z M16.5,43.9
		c-0.4,0.8-0.9,1.6-1.6,2.2c-0.4-0.5-0.7-1.1-0.9-1.8c-0.2-0.5-0.6-1-1.1-1.1c-0.5-0.1-1.1,0-1.5,0.4c-0.5,0.6-1.1,1.2-1.5,1.8
		c-0.3-0.6-0.7-1.2-1-1.8c-0.3-0.6-1-0.9-1.7-0.7c-1.2,0.4-2.5,0.6-3.7,0.8h0c0.5-1,1.1-1.9,1.9-2.7c0.5-0.5,0.5-1.2,0.2-1.7
		c-0.2-0.3-0.4-0.6-0.6-0.8c0.9-0.4,1.8-0.8,2.7-1.4c0.7-0.4,0.9-1.3,0.5-2c-0.2-0.3-0.4-0.6-0.6-0.9c0.6,0,1.1,0,1.7,0.1h0
		c0.4,0,0.8-0.1,1-0.5c1.1,1.6,2.1,3.1,3.1,4.4c1.2,1.7,2.4,3.4,3.6,5.1C16.6,43.5,16.5,43.7,16.5,43.9L16.5,43.9z M25.9,43.8
		c-0.6,0.4-1.1,0.8-1.6,1.2c-0.3,0.2-0.7,0.5-1.1,0.8c-0.7-0.9-1.3-1.8-2-2.7c1.7-0.8,3.4-1.7,5-2.9C25.8,41.4,25.8,42.6,25.9,43.8
		L25.9,43.8z M36.1,29.3c-3.5,2.3-7.1,4.7-10.6,7c-2.2,1.4-4.6,2.4-6.8,3.6c-1.2-1.6-2.4-3.1-3.6-4.7c-0.7-0.9-1.3-1.9-2.1-2.9v0
		c1.3-2.1,2.9-4,4.7-5.8c2.6-2.3,5.5-3.8,8.4-5.6c1.5-0.9,0.5-3.6-1.3-3l-0.4,0.2v0c-0.1,0-0.2-0.1-0.3-0.1c-1.7-0.4-3.4-0.7-5.1-1
		c4.9-1.6,10-1.3,15.3-0.8h0.1v0c1.7,1.4,3.9,1.9,6,1.4c0.4-0.1,0.9-0.2,1.3-0.3c4.8,0.2,9.6,0.5,14.4,0.4c-4.1,2.4-8.2,5-12.5,7.1
		C41.1,26.2,38.6,27.7,36.1,29.3L36.1,29.3z"/>
	<g>
		<path class="st1" d="M39.1,17.7c-4.9,0-8.8-4-8.8-8.8c0-4.9,4-8.8,8.8-8.8C44,0,48,4,48,8.8C48,13.7,44,17.7,39.1,17.7z M39.1,3.4
			c-3,0-5.4,2.4-5.4,5.4c0,3,2.4,5.4,5.4,5.4c3,0,5.4-2.4,5.4-5.4C44.6,5.9,42.1,3.4,39.1,3.4z"/>
	</g>
</g>
</svg>
