<?xml version="1.0" encoding="utf-8"?>
<!-- Generator: Adobe Illustrator 24.3.0, SVG Export Plug-In . SVG Version: 6.00 Build 0)  -->
<svg version="1.1" id="Layer_1" xmlns="http://www.w3.org/2000/svg" xmlns:xlink="http://www.w3.org/1999/xlink" x="0px" y="0px"
	 viewBox="0 0 50 50" style="enable-background:new 0 0 50 50;" xml:space="preserve">
<style type="text/css">
	.st0{fill:#1C1D21;}
	.st1{fill:#F24B09;}
</style>
<g>
	<path class="st0" d="M37,32.8c1.5-2.3,2.3-4.9,2.3-7.8c0-7.9-6.4-14.4-14.4-14.4c-7.9,0-14.4,6.4-14.4,14.4S17.1,39.4,25,39.4
		c3,0,5.8-0.9,8.2-2.6l7.4,7.4c0.9,0.9,2.4,0.9,3.3,0l0.6-0.6c0.9-0.9,0.9-2.4,0-3.3L37,32.8z M25,36.3c-6.2,0-11.3-5.1-11.3-11.3
		S18.8,13.7,25,13.7S36.3,18.8,36.3,25S31.2,36.3,25,36.3z"/>
	<path class="st1" d="M28.7,19.1c0,2.1-1.7,3.7-3.7,3.7s-3.7-1.7-3.7-3.7c0-2.1,1.7-3.7,3.7-3.7S28.7,17,28.7,19.1"/>
	<path class="st1" d="M29.1,22.8h-1.5L25,25.9l-2.7-3.1h-1.5c-1.2,0-2.1,1-2.1,2.1l0.9,7.1c0,1.2,0.7,2.1,1.9,2.1h7
		c1.2,0,1.9-1,1.9-2.1l0.9-7.1C31.3,23.8,30.3,22.8,29.1,22.8L29.1,22.8z"/>
	<path class="st0" d="M25,8c1.1,0,2-0.9,2-2V2c0-1.1-0.9-2-2-2c-1.1,0-2,0.9-2,2v4C23,7.1,23.9,8,25,8z"/>
	<path class="st0" d="M6,23H2c-1.1,0-2,0.9-2,2c0,1.1,0.9,2,2,2h4c1.1,0,2-0.9,2-2C8,23.9,7.1,23,6,23z"/>
	<path class="st0" d="M25,42c-1.1,0-2,0.9-2,2v4c0,1.1,0.9,2,2,2c1.1,0,2-0.9,2-2v-4C27,42.9,26.1,42,25,42z"/>
	<path class="st0" d="M48,23h-4c-1.1,0-2,0.9-2,2c0,1.1,0.9,2,2,2h4c1.1,0,2-0.9,2-2C50,23.9,49.1,23,48,23z"/>
</g>
</svg>
