<?xml version="1.0" encoding="utf-8"?>
<!-- Generator: Adobe Illustrator 24.3.0, SVG Export Plug-In . SVG Version: 6.00 Build 0)  -->
<svg version="1.1" id="Layer_1" xmlns="http://www.w3.org/2000/svg" xmlns:xlink="http://www.w3.org/1999/xlink" x="0px" y="0px"
	 viewBox="0 0 59.8 50" style="enable-background:new 0 0 59.8 50;" xml:space="preserve">
<style type="text/css">
	.st0{fill:#1C1D21;}
	.st1{fill:#F24B09;}
</style>
<path class="st0" d="M48,50h5.5c0.3,0,0.6,0,0.9-0.1V35.1H48L48,50z"/>
<path class="st1" d="M0,17.7v26c0,2.2,1.1,4.1,2.8,5.2V37.9c0-0.7,0.6-1.3,1.3-1.3h9c0.7,0,1.3,0.6,1.3,1.3V50H17l0-18.5
	c0-0.7,0.6-1.3,1.3-1.3h9c0.7,0,1.3,0.6,1.3,1.3V50h2.6V25.5c0-0.7,0.6-1.3,1.3-1.3h9c0.7,0,1.3,0.6,1.3,1.3V50h2.6l0-16.2
	c0-0.7,0.6-1.3,1.3-1.3h9c0.7,0,1.3,0.6,1.3,1.3V49c1.7-1.1,2.8-3,2.8-5.2v-26c0-3.5-2.8-6.3-6.3-6.3l-47.2,0
	C2.8,11.4,0,14.3,0,17.7L0,17.7z M36.8,14.2c0.1,0,0.2,0,0.3,0c0.1,0,0.2,0,0.2,0c0.1,0,0.2,0.1,0.3,0.2c0,0,0.1,0,0.1,0.1l0,0
	c0,0,0,0,0,0l18.7,13.6c0.6,0.4,0.7,1.2,0.3,1.8c-0.3,0.3-0.7,0.5-1.1,0.5c-0.3,0-0.5-0.1-0.8-0.2L36.9,17l-13.5,7.8c0,0,0,0,0,0
	c0,0,0,0,0,0L4.7,34.9c-0.2,0.1-0.4,0.2-0.6,0.2c-0.5,0-0.9-0.2-1.1-0.7c-0.3-0.6-0.1-1.4,0.5-1.8l18.7-10.1l14.1-8.2c0,0,0,0,0,0
	l0,0c0,0,0.1,0,0.1-0.1C36.6,14.2,36.7,14.2,36.8,14.2L36.8,14.2z"/>
<path class="st0" d="M33.8,26.8h6.4V50h-6.4V26.8z"/>
<path class="st0" d="M19.6,32.8H26V50h-6.4V32.8z"/>
<path class="st0" d="M20.5,8.8V4.3c0-1,0.8-1.7,1.7-1.7h15.4c1,0,1.7,0.8,1.7,1.7v4.5h2.6l0-4.5C41.9,1.9,40,0,37.6,0H22.2
	c-2.4,0-4.3,1.9-4.3,4.3v4.5L20.5,8.8L20.5,8.8z"/>
<path class="st0" d="M5.4,49.9C5.7,50,6,50,6.3,50h5.5V39.2H5.4L5.4,49.9z"/>
</svg>
