<?xml version="1.0" encoding="utf-8"?>
<!-- Generator: Adobe Illustrator 24.3.0, SVG Export Plug-In . SVG Version: 6.00 Build 0)  -->
<svg version="1.1" id="Layer_1" xmlns="http://www.w3.org/2000/svg" xmlns:xlink="http://www.w3.org/1999/xlink" x="0px" y="0px"
	 viewBox="0 0 49.9 50" style="enable-background:new 0 0 49.9 50;" xml:space="preserve">
<style type="text/css">
	.st0{fill:#F24B09;}
	.st1{fill:#1C1D21;}
</style>
<path class="st0" d="M7.3,37.9c3.5,4.2,7.9,7.6,12.8,10c2.2,1,4.5,1.9,7,2.1c1.7,0.1,3.3-0.3,4.5-1.7c0.8-0.9,1.7-1.7,2.6-2.7
	c1.3-1.3,1.3-2.9,0-4.2l-4.7-4.7c-1.2-1.3-2.8-1.3-4.1,0c-0.9,0.9-1.9,1.9-2.8,2.8c-0.3,0.3-0.5,0.3-0.8,0.2c-0.6-0.3-1.3-0.6-1.9-1
	c-2.8-1.7-5.1-4-7.2-6.6c-1-1.3-1.9-2.6-2.6-4.1c-0.1-0.3-0.1-0.5,0.2-0.8c1-0.9,1.9-1.9,2.8-2.8c1.3-1.3,1.3-2.8,0-4.2
	c-0.8-0.8-1.6-1.6-2.3-2.3c-0.8-0.8-1.6-1.6-2.3-2.3c-1.2-1.2-2.8-1.2-4.1,0c-0.9,0.9-1.9,1.9-2.8,2.8c-0.9,0.9-1.4,2-1.5,3.2
	c-0.2,2,0.3,3.9,1,5.8C2.5,31.4,4.7,34.7,7.3,37.9L7.3,37.9z"/>
<path class="st1" d="M36.7,10c0,1.2-0.9,2-2,2c-1.1,0-2-0.9-2.1-2.1c0.1-1.1,0.9-2,2.1-2C35.7,7.9,36.7,8.9,36.7,10z"/>
<path class="st1" d="M32.5,10c0.1-1.1,0.9-2,2.1-2c1.1,0,2,0.9,2,2.1s-0.9,2-2,2C33.5,12.1,32.6,11.2,32.5,10z"/>
<path class="st1" d="M37.7,21.9c0,0.2-0.2,0.3-0.3,0.5c-0.8,0.8-1.7,1.2-2.7,1.2c-0.5,0-1-0.1-1.5-0.1c-0.8-0.1-1.9-1.2-1.7-2.2
	c0.1-0.7,0.2-1.5,0.3-2.2c0.3-1.3,0.5-2.6,0.7-3.8v-0.3c0-0.5-0.2-0.8-0.7-0.8c-0.3,0-0.5-0.1-0.7-0.1c-0.3-0.1-0.4-0.3-0.2-0.3
	c0.1-0.2,0.2-0.3,0.5-0.4c0.2-0.1,0.3-0.1,0.5-0.1h3.8c0.5,0,0.8,0.2,0.8,0.7c0.1,0.3-0.1,0.8-0.1,1.2c-0.3,1.5-0.5,2.9-0.8,4.4
	c-0.1,0.5-0.2,1-0.3,1.5c-0.1,0.3,0,0.5,0.1,0.8c0.1,0.2,0.3,0.5,0.6,0.4c0.3-0.1,0.5-0.1,0.8-0.2c0.2-0.1,0.3-0.2,0.6-0.3
	C37.5,21.4,37.8,21.6,37.7,21.9z"/>
<path class="st1" d="M45.3,4.6c-6.1-6.2-16.1-6.2-22.2,0h0C17.2,10.6,17,20,22.5,26.1l0.1,0.1c-0.6,1.3-1.7,2.8-3.3,3.7
	c-0.5,0.2-0.4,1,0.2,1.2c1.8,0.3,4.4,0,6.7-1.8l0.1,0.1c6,3.5,13.9,2.7,19.1-2.4C51.4,20.7,51.4,10.7,45.3,4.6z M34.3,27.8
	c-6.6,0-12-5.4-12-12c0-6.6,5.4-12,12-12c6.6,0,12,5.4,12,12C46.3,22.4,41,27.8,34.3,27.8z"/>
<path class="st1" d="M32.5,10c0.1-1.1,0.9-2,2.1-2c1.1,0,2,0.9,2,2.1s-0.9,2-2,2C33.5,12.1,32.6,11.2,32.5,10z"/>
<path class="st1" d="M37.7,21.9c0,0.2-0.2,0.3-0.3,0.5c-0.8,0.8-1.7,1.2-2.7,1.2c-0.5,0-1-0.1-1.5-0.1c-0.8-0.1-1.9-1.2-1.7-2.2
	c0.1-0.7,0.2-1.5,0.3-2.2c0.3-1.3,0.5-2.6,0.7-3.8v-0.3c0-0.5-0.2-0.8-0.7-0.8c-0.3,0-0.5-0.1-0.7-0.1c-0.3-0.1-0.4-0.3-0.2-0.3
	c0.1-0.2,0.2-0.3,0.5-0.4c0.2-0.1,0.3-0.1,0.5-0.1h3.8c0.5,0,0.8,0.2,0.8,0.7c0.1,0.3-0.1,0.8-0.1,1.2c-0.3,1.5-0.5,2.9-0.8,4.4
	c-0.1,0.5-0.2,1-0.3,1.5c-0.1,0.3,0,0.5,0.1,0.8c0.1,0.2,0.3,0.5,0.6,0.4c0.3-0.1,0.5-0.1,0.8-0.2c0.2-0.1,0.3-0.2,0.6-0.3
	C37.5,21.4,37.8,21.6,37.7,21.9z"/>
<path class="st1" d="M37.7,21.9c0,0.2-0.2,0.3-0.3,0.5c-0.8,0.8-1.7,1.2-2.7,1.2c-0.5,0-1-0.1-1.5-0.1c-0.8-0.1-1.9-1.2-1.7-2.2
	c0.1-0.7,0.2-1.5,0.3-2.2c0.3-1.3,0.5-2.6,0.7-3.8v-0.3c0-0.5-0.2-0.8-0.7-0.8c-0.3,0-0.5-0.1-0.7-0.1c-0.3-0.1-0.4-0.3-0.2-0.3
	c0.1-0.2,0.2-0.3,0.5-0.4c0.2-0.1,0.3-0.1,0.5-0.1h3.8c0.5,0,0.8,0.2,0.8,0.7c0.1,0.3-0.1,0.8-0.1,1.2c-0.3,1.5-0.5,2.9-0.8,4.4
	c-0.1,0.5-0.2,1-0.3,1.5c-0.1,0.3,0,0.5,0.1,0.8c0.1,0.2,0.3,0.5,0.6,0.4c0.3-0.1,0.5-0.1,0.8-0.2c0.2-0.1,0.3-0.2,0.6-0.3
	C37.5,21.4,37.8,21.6,37.7,21.9z"/>
</svg>
