<?xml version="1.0" encoding="utf-8"?>
<!-- Generator: Adobe Illustrator 24.3.0, SVG Export Plug-In . SVG Version: 6.00 Build 0)  -->
<svg version="1.1" id="Layer_1" xmlns="http://www.w3.org/2000/svg" xmlns:xlink="http://www.w3.org/1999/xlink" x="0px" y="0px"
	 viewBox="0 0 58.3 50" style="enable-background:new 0 0 58.3 50;" xml:space="preserve">
<style type="text/css">
	.st0{fill:#1C1D21;}
	.st1{fill:#F24B09;}
</style>
<path class="st0" d="M58.2,25.1l0-0.1L55.7,3.9h0c-0.1-1.1-0.6-2.1-1.4-2.8C53.4,0.4,52.4,0,51.3,0H24c-0.6,0-1.2,0.1-1.7,0.4
	c4.1,2.5,6.8,6.8,7.4,11.6c0.6,4.8-1.1,9.6-4.5,13h12.4V4.8H51L53.4,25H37.7v19.7c-3.9-2.1-7.5-4.6-11-7.4c-2.9-2.3-4.7-5.9-4.9-9.6
	c-1.4,0.8-3,1.4-4.6,1.8c0.6,4.6,2.9,8.7,6.5,11.6c4,3.2,8.3,6.1,12.9,8.4l1.1,0.5l1.1-0.5h0c4.6-2.4,8.9-5.2,12.9-8.4
	c2.4-1.9,4.2-4.3,5.3-7.1C58.1,31.2,58.5,28.1,58.2,25.1L58.2,25.1z"/>
<path class="st1" d="M27.7,13.9c0-3.7-1.5-7.2-4.1-9.8S17.5,0,13.9,0c-3.7,0-7.2,1.5-9.8,4.1C1.5,6.7,0,10.2,0,13.9
	c0,3.7,1.5,7.2,4.1,9.8s6.1,4.1,9.8,4.1c3.7,0,7.2-1.5,9.8-4.1S27.7,17.5,27.7,13.9L27.7,13.9z M11,21.1L5.4,14l1.8-1.9l3.8,3
	l9.5-8.5l1.8,1.8L11,21.1z"/>
</svg>
