<?xml version="1.0" encoding="utf-8"?>
<!-- Generator: Adobe Illustrator 24.3.0, SVG Export Plug-In . SVG Version: 6.00 Build 0)  -->
<svg version="1.1" id="Layer_1" xmlns="http://www.w3.org/2000/svg" xmlns:xlink="http://www.w3.org/1999/xlink" x="0px" y="0px"
	 viewBox="0 0 50.1 50" style="enable-background:new 0 0 50.1 50;" xml:space="preserve">
<style type="text/css">
	.st0{fill-rule:evenodd;clip-rule:evenodd;fill:#1C1D21;}
	.st1{fill-rule:evenodd;clip-rule:evenodd;fill:#F24B09;}
</style>
<path class="st0" d="M7.8,31.5c-0.9-0.9-1.4-2.2-1.4-3.5c0-1.3,0.5-2.5,1.4-3.5c0.9-0.9,2.2-1.4,3.5-1.4c1.3,0,2.5,0.5,3.5,1.4
	c0.9,0.9,1.4,2.2,1.4,3.5c0,1.3-0.5,2.5-1.4,3.5c-0.9,0.9-2.2,1.4-3.5,1.4C10,32.9,8.8,32.4,7.8,31.5z M11.3,35.9
	c-3,0-5.9,1.2-8,3.3s-3.3,5-3.3,8c0,1,1.4,1.5,2.1,1.7c1.4,0.4,3,0.7,4.5,0.8c1.6,0.2,3.1,0.2,4.7,0.2c1.6,0,3.2-0.1,4.7-0.2
	c1.5-0.2,3.1-0.4,4.5-0.8c0.8-0.2,2.1-0.7,2.1-1.7c0-3-1.2-5.9-3.3-8C17.2,37.1,14.3,35.9,11.3,35.9L11.3,35.9z M22.9,23
	c-0.4-0.4-1-0.7-1.7-0.7c-0.7,0-1.3,0.3-1.7,0.7l0,0c-0.4,0.4-0.7,1-0.7,1.7c0,0.7,0.3,1.3,0.7,1.7s1,0.7,1.7,0.7
	c0.7,0,1.3-0.3,1.7-0.7l0,0c0.4-0.4,0.7-1,0.7-1.7C23.6,24.1,23.4,23.4,22.9,23L22.9,23z"/>
<rect x="31.1" y="11.4" class="st1" width="2.2" height="5.3"/>
<rect x="34.9" y="9.6" class="st1" width="2.2" height="7.1"/>
<rect x="38.7" y="6.1" class="st1" width="2.2" height="10.6"/>
<path class="st1" d="M46,3.4C43.2,1.1,39.6,0,36,0c-3.6,0-7.2,1.1-10,3.4c-2.5,2-4.1,4.8-4.1,8c0,1.2,0.2,2.4,0.7,3.6
	c0.5,1.2,1.2,2.3,2.1,3.2c0.1,0.1,0.1,0.2,0.1,0.3l-0.1,0.7c-0.1,0.4-0.4,1.5-0.3,1.9c0.1,0.4,0.5,0.5,0.8,0.3
	c0.1-0.1,0.3-0.2,0.4-0.2c0.5-0.3,1-0.5,1.5-0.7l0,0l0,0c0.1,0,0.2,0,0.3,0c1.3,0.8,2.6,1.4,4,1.8c1.5,0.4,3,0.6,4.5,0.6
	c3.6,0,7.2-1.1,10-3.4c2.5-2,4.1-4.8,4.1-8v0C50.1,8.2,48.5,5.4,46,3.4z M42.5,17.5c0,0.4-0.4,0.8-0.8,0.8H30.3
	c-0.4,0-0.8-0.4-0.8-0.8c0-0.1,0-0.1,0-0.2c0-0.1,0-0.1,0-0.2v-6.6c0-0.4,0.4-0.8,0.8-0.8h3v-1c0-0.4,0.4-0.8,0.8-0.8h3V5.3
	c0-0.4,0.4-0.8,0.8-0.8h3.8c0.4,0,0.8,0.4,0.8,0.8l0,11.8c0,0.1,0,0.1,0,0.2C42.5,17.4,42.5,17.4,42.5,17.5z"/>
<rect x="31.1" y="11.4" class="st1" width="2.2" height="5.3"/>
<rect x="34.9" y="9.6" class="st1" width="2.2" height="7.1"/>
<rect x="38.7" y="6.1" class="st1" width="2.2" height="10.6"/>
<rect x="38.7" y="6.1" class="st1" width="2.2" height="10.6"/>
<rect x="34.9" y="9.6" class="st1" width="2.2" height="7.1"/>
<rect x="31.1" y="11.4" class="st1" width="2.2" height="5.3"/>
</svg>
