<?xml version="1.0" encoding="utf-8"?>
<!-- Generator: Adobe Illustrator 24.3.0, SVG Export Plug-In . SVG Version: 6.00 Build 0)  -->
<svg version="1.1" id="Layer_1" xmlns="http://www.w3.org/2000/svg" xmlns:xlink="http://www.w3.org/1999/xlink" x="0px" y="0px"
	 viewBox="0 0 48.7 50" style="enable-background:new 0 0 48.7 50;" xml:space="preserve">
<style type="text/css">
	.st0{fill:#1C1D21;}
	.st1{fill:#F24B09;}
</style>
<g>
	<path class="st0" d="M20.8,50c5.5,0,10.8-2.2,14.7-6.1c3.9-3.9,6.1-9.2,6.1-14.7c0-1.6-0.2-3.1-0.5-4.7c-0.1-0.4-0.4-0.8-0.8-1.1
		c-0.4-0.2-0.8-0.3-1.3-0.2c-0.4,0.1-0.8,0.4-1,0.8c-0.2,0.4-0.3,0.9-0.2,1.3c0.3,1.3,0.5,2.6,0.4,3.9c0,4.6-1.8,9-5.1,12.3
		c-3.3,3.3-7.7,5.1-12.3,5.1c-4.6,0-9-1.8-12.3-5.1c-3.3-3.3-5.1-7.7-5.1-12.3c0-4.6,1.8-9,5.1-12.3c3.3-3.3,7.7-5.1,12.3-5.1
		c1,0,2,0.1,2.9,0.2c0.6,0.1,1.2-0.1,1.6-0.6c0.4-0.5,0.5-1.1,0.3-1.7s-0.7-1-1.3-1.1c-1.2-0.2-2.3-0.3-3.5-0.3
		c-5.5,0-10.8,2.2-14.7,6.1C2.2,18.4,0,23.7,0,29.2S2.2,40,6.1,43.9C10,47.8,15.3,50,20.8,50L20.8,50z"/>
	<path class="st0" d="M20.8,20.8c0.4,0,0.8,0,1.1,0.1c0.6,0.1,1.2-0.2,1.5-0.6c0.4-0.5,0.5-1.1,0.2-1.6c-0.2-0.5-0.7-1-1.3-1.1
		c-0.5-0.1-1.1-0.1-1.6-0.1c-3.1,0-6.1,1.2-8.3,3.5S9,26.1,9,29.2s1.2,6.1,3.5,8.3c2.2,2.2,5.2,3.5,8.3,3.5s6.1-1.2,8.3-3.5
		c2.2-2.2,3.5-5.2,3.5-8.3c0-1-0.1-1.9-0.4-2.8c-0.1-0.6-0.5-1-1-1.2c-0.5-0.2-1.1-0.2-1.6,0.2s-0.8,0.8-0.8,1.4
		c0,0.2,0,0.3,0.1,0.4c0.2,0.7,0.3,1.4,0.3,2.1c0,2.2-0.9,4.4-2.5,6c-1.6,1.6-3.7,2.5-6,2.5c-2.2,0-4.4-0.9-6-2.5
		c-1.6-1.6-2.5-3.7-2.5-6c0-2.2,0.9-4.4,2.5-6C16.4,21.7,18.5,20.8,20.8,20.8L20.8,20.8z"/>
	<path class="st1" d="M47.4,9.6l-6.8-1.4l-1.4-6.8c-0.1-0.4-0.3-0.8-0.6-1C38.2,0.1,37.8,0,37.4,0c-0.4,0-0.8,0.2-1.1,0.5l-7.9,7.9
		c-0.4,0.4-0.6,1-0.5,1.5l1.4,7.1l-9.8,11c-0.4,0.4-0.5,1.1-0.3,1.7c0.2,0.6,0.7,1,1.3,1.1c0.6,0.1,1.2-0.1,1.6-0.5l9.7-10.9l7,1.4
		c0.1,0,0.2,0,0.3,0c0.4,0,0.9-0.2,1.2-0.5l7.9-7.9v0c0.3-0.3,0.5-0.7,0.5-1.1c0-0.4-0.1-0.8-0.3-1.1C48.1,9.9,47.8,9.6,47.4,9.6
		L47.4,9.6z M38.5,17.3l-6-1.2l-1.2-6l5.1-5.1l1,4.9v0c0.1,0.3,0.2,0.6,0.5,0.9c0.2,0.2,0.5,0.4,0.9,0.5l4.9,1L38.5,17.3z"/>
</g>
</svg>
