<?xml version="1.0" encoding="utf-8"?>
<!-- Generator: Adobe Illustrator 24.3.0, SVG Export Plug-In . SVG Version: 6.00 Build 0)  -->
<svg version="1.1" id="Layer_1" xmlns="http://www.w3.org/2000/svg" xmlns:xlink="http://www.w3.org/1999/xlink" x="0px" y="0px"
	 viewBox="0 0 94.1 50" style="enable-background:new 0 0 94.1 50;" xml:space="preserve">
<style type="text/css">
	.st0{fill:#1C1D21;}
	.st1{fill:#F24B09;}
</style>
<g>
	<path class="st0" d="M28.3,38.4c-0.9-3.8-4.2-6.3-8-6.3c-0.5,0-0.9,0.2-1.2,0.6l-3.2,4.6c-0.4,0.6-1.3,0.6-1.7,0l-3.2-4.6
		C11,32.3,10.5,32,10,32c-3.9,0-7.1,2.7-8,6.3l-1.9,8.1c-0.4,1.8,1,3.6,2.9,3.6h24.4c1.9,0,3.3-1.7,2.9-3.6L28.3,38.4z"/>
	<path class="st0" d="M15.1,30.8c4.3,0,7.7-3.5,7.7-7.7v-3.3c0-4.3-3.5-7.7-7.7-7.7s-7.7,3.5-7.7,7.7v3.3
		C7.4,27.3,10.9,30.8,15.1,30.8z"/>
	<path class="st0" d="M94,46.5l-1.9-8.1c-0.9-3.8-4.2-6.3-8-6.3c-0.5,0-0.9,0.2-1.2,0.6l-3.2,4.6c-0.4,0.6-1.3,0.6-1.7,0l-3.2-4.6
		c-0.1-0.4-0.5-0.7-1-0.7c-3.9,0-7.1,2.7-8,6.3L64,46.4c-0.4,1.8,1,3.6,2.9,3.6h24.4C93.1,50.1,94.4,48.3,94,46.5L94,46.5z"/>
	<path class="st0" d="M79.1,30.8c4.3,0,7.7-3.5,7.7-7.7v-3.3c0-4.3-3.5-7.7-7.7-7.7c-4.3,0-7.7,3.5-7.7,7.7v3.3
		C71.3,27.3,74.8,30.8,79.1,30.8z"/>
	<path class="st1" d="M41.4,4c-1-0.3-2.2-0.5-3.3-0.5c-5.7,0-10.4,4.7-10.4,10.4c0,2.1,0.6,4,1.7,5.6l-1.9,4.2
		c-0.3,0.6,0.3,1.2,0.9,0.9l4.2-1.9c1.6,1.1,3.6,1.7,5.6,1.7c1.9,0,3.8-0.5,5.2-1.4c-2.7-2.8-4.4-6.5-4.4-10.7
		C39,9.1,39.9,6.3,41.4,4L41.4,4z"/>
	<path class="st1" d="M66.8,23.4l-2.2-4.8c1.2-1.9,1.9-4.2,1.9-6.5C66.5,5.4,61.1,0,54.4,0c-6.6,0-12.1,5.4-12.1,12.1
		s5.4,12.1,12.1,12.1c2.4,0,4.7-0.7,6.5-1.9l4.8,2.2C66.4,24.8,67.1,24.1,66.8,23.4L66.8,23.4z M54.4,20.2c-1,0-1.8-0.8-1.8-1.8
		c0-1,0.8-1.8,1.8-1.8c1,0,1.8,0.8,1.8,1.8C56.1,19.4,55.3,20.2,54.4,20.2z M56.5,13.1c-0.8,0.7-0.8,1-0.8,1.2v0.6
		c0,0.3-0.3,0.6-0.6,0.6h-1.6c-0.3,0-0.6-0.3-0.6-0.6v-0.7c0-1.2,0.6-2.3,1.9-3.3c0.9-0.7,1.8-1.6,1.8-2.4c0-1.2-0.6-1.7-2-1.7
		c-2.2,0-2.2,1.6-2.2,1.7v0.3c0,0.3-0.3,0.6-0.6,0.6h-1.6c-0.3,0-0.6-0.3-0.6-0.6V8.5c0-1.8,1.3-4.5,5-4.5c3.5,0,4.8,2.3,4.8,4.5
		C59.4,10.7,57.6,12.2,56.5,13.1L56.5,13.1z"/>
</g>
</svg>
