<?xml version="1.0" encoding="utf-8"?>
<!-- Generator: Adobe Illustrator 24.3.0, SVG Export Plug-In . SVG Version: 6.00 Build 0)  -->
<svg version="1.1" id="Layer_1" xmlns="http://www.w3.org/2000/svg" xmlns:xlink="http://www.w3.org/1999/xlink" x="0px" y="0px"
	 viewBox="0 0 50 50" style="enable-background:new 0 0 50 50;" xml:space="preserve">
<style type="text/css">
	.st0{fill-rule:evenodd;clip-rule:evenodd;fill:#F24B09;}
	.st1{fill-rule:evenodd;clip-rule:evenodd;fill:#1C1D21;}
</style>
<path class="st0" d="M19.2,48.6l-4.7-4.7c0,0-0.1,0.1-0.1,0.1l-2.3,2.3l3,3c1,1,2.6,1,3.6,0L19.2,48.6z M25.9,30.9
	c-0.5,0-0.8-0.4-0.8-0.8c0-0.5,0.4-0.8,0.8-0.8h1.9c0.5,0,0.8,0.4,0.8,0.8c0,0.5-0.4,0.8-0.8,0.8H25.9z M24.8,26
	c-0.3,0.3-0.9,0.3-1.2,0c-0.3-0.3-0.3-0.9,0-1.2l1.4-1.4c0.3-0.3,0.9-0.3,1.2,0c0.3,0.3,0.3,0.9,0,1.2L24.8,26z M18.8,21.6v1.9
	c0,0.5,0.4,0.8,0.8,0.8c0.5,0,0.8-0.4,0.8-0.8v-1.9c0-0.5-0.4-0.8-0.8-0.8C19.2,20.7,18.8,21.1,18.8,21.6z M6.8,36.2l6.5,6.5
	l-3.4,3.4c-1.8,1.8-4.7,1.8-6.5,0c-1.8-1.8-1.8-4.7,0-6.5L6.8,36.2z M7.7,34.7l7.1,7.1c2.3-1.3,4.8-2.2,7.3-2.8L10.4,27.3
	C9.7,29.8,8.9,32.4,7.7,34.7L7.7,34.7z M10.9,25.5c0.1-0.3,0.2-0.6,0.3-0.9c0.3-1,1.6-1.4,2.3-0.6l4.2,4.2l0.1-0.1
	c1.1-1.1,2.8-1.1,3.8,0c1.1,1.1,1.1,2.8,0,3.8L21.5,32l4,4c0.8,0.8,0.4,2.1-0.7,2.3c-0.3,0.1-0.6,0.1-0.9,0.2L10.9,25.5z"/>
<path class="st1" d="M37,0c-7.2,0-13,5.8-13,13c0,7.2,5.8,13,13,13s13-5.8,13-13S44.2,0,37,0z M31.1,19.3h-1.7v-8.8h1.7V19.3z
	 M44.2,15.2h-0.9c0.7,0,1.3,0.6,1.3,1.3c0,0.7-0.6,1.3-1.3,1.3h-0.8c0.7,0,1.3,0.6,1.3,1.3c0,0.7-0.6,1.3-1.3,1.3h-2.8
	c-2.5,0.4-4.9,1-6.9-0.9v-8.8c1.6-1.2,3.5-2.2,3.5-4.4V3.5c1.8,0,3.2,1.4,3.2,3.2v2.1c-0.1,0.4-0.3,0.9-0.6,1.3h4.7
	c0.7,0,1.3,0.6,1.3,1.3c0,0.7-0.6,1.3-1.3,1.3h0.5c0.7,0,1.3,0.6,1.3,1.3C45.4,14.6,44.8,15.2,44.2,15.2z"/>
<path class="st1" d="M39.5,28.9c-5.8,0-10.5,4.7-10.5,10.5c0,5.8,4.7,10.5,10.5,10.5C45.3,50,50,45.3,50,39.5
	C50,33.6,45.3,28.9,39.5,28.9z M45.2,38.2l-2.9,2.4c-0.1,0.1-0.1,0.2-0.1,0.3l1,3.6c0.1,0.2-0.2,0.4-0.4,0.3l-3.1-2.1
	c-0.1-0.1-0.2-0.1-0.3,0l-3.1,2.1c-0.2,0.1-0.5-0.1-0.4-0.3l1-3.6c0-0.1,0-0.2-0.1-0.3l-2.9-2.4c-0.2-0.2-0.1-0.5,0.2-0.5l3.7-0.2
	c0.1,0,0.2-0.1,0.2-0.2l1.3-3.5c0.1-0.2,0.4-0.2,0.5,0l1.3,3.5c0,0.1,0.1,0.2,0.2,0.2l3.7,0.2C45.3,37.7,45.4,38,45.2,38.2z"/>
<path class="st1" d="M10.5,3.3c-4,0-7.2,3.2-7.2,7.2c0,4,3.2,7.2,7.2,7.2s7.2-3.2,7.2-7.2C17.7,6.6,14.5,3.3,10.5,3.3z M11.4,15.2
	v0.4c0,0.5-0.4,0.8-0.8,0.8c-0.5,0-0.8-0.4-0.8-0.8v-0.4c-1.2-0.3-2.2-1.1-2.6-2.3c-0.1-0.4,0.2-0.9,0.6-1c0.4-0.1,0.9,0.2,1,0.6
	c0.2,0.8,1.1,1.2,1.9,1.2c0.1,0,0.2,0,0.3,0c0.5-0.1,1.4-0.3,1.4-1c0,0,0-0.1,0-0.1c-0.1-0.8-1.2-1.1-1.9-1.2
	c-1.5-0.2-2.9-0.9-3-2.6c-0.1-1.4,1-2.5,2.3-2.8V5.4c0-0.5,0.4-0.8,0.8-0.8c0.5,0,0.8,0.4,0.8,0.8v0.4c1.1,0.2,1.9,0.9,2.3,1.9
	c0.2,0.4,0,0.9-0.4,1.1c-0.4,0.2-0.9,0-1.1-0.4c-0.3-0.8-1.2-1.1-2-1C9.6,7.6,9,7.9,9.1,8.6c0,0.8,1,1,1.6,1.1
	c1.5,0.3,3,0.9,3.3,2.6c0,0.1,0,0.2,0,0.3C14,14.1,12.7,15,11.4,15.2z"/>
<path class="st1" d="M10.5,0C4.7,0,0,4.7,0,10.5s4.7,10.5,10.5,10.5s10.5-4.7,10.5-10.5S16.3,0,10.5,0z M11.4,15.2v0.4
	c0,0.5-0.4,0.8-0.8,0.8c-0.5,0-0.8-0.4-0.8-0.8v-0.4c-1.2-0.3-2.2-1.1-2.6-2.3c-0.1-0.4,0.2-0.9,0.6-1c0.4-0.1,0.9,0.2,1,0.6
	c0.2,0.8,1.1,1.2,1.9,1.2c0.1,0,0.2,0,0.3,0c0.5-0.1,1.4-0.3,1.4-1c0,0,0-0.1,0-0.1c-0.1-0.8-1.2-1.1-1.9-1.2
	c-1.5-0.2-2.9-0.9-3-2.6c-0.1-1.4,1-2.5,2.3-2.8V5.4c0-0.5,0.4-0.8,0.8-0.8c0.5,0,0.8,0.4,0.8,0.8v0.4c1.1,0.2,1.9,0.9,2.3,1.9
	c0.2,0.4,0,0.9-0.4,1.1c-0.4,0.2-0.9,0-1.1-0.4c-0.3-0.8-1.2-1.1-2-1C9.6,7.6,9,7.9,9.1,8.6c0,0.8,1,1,1.6,1.1
	c1.5,0.3,3,0.9,3.3,2.6c0,0.1,0,0.2,0,0.3C14,14.1,12.7,15,11.4,15.2z"/>
<path class="st1" d="M10.5,1.7c-4.9,0-8.9,4-8.9,8.9c0,4.9,4,8.9,8.9,8.9c4.9,0,8.9-4,8.9-8.9C19.4,5.6,15.4,1.7,10.5,1.7z
	 M11.4,15.2v0.4c0,0.5-0.4,0.8-0.8,0.8c-0.5,0-0.8-0.4-0.8-0.8v-0.4c-1.2-0.3-2.2-1.1-2.6-2.3c-0.1-0.4,0.2-0.9,0.6-1
	c0.4-0.1,0.9,0.2,1,0.6c0.2,0.8,1.1,1.2,1.9,1.2c0.1,0,0.2,0,0.3,0c0.5-0.1,1.4-0.3,1.4-1c0,0,0-0.1,0-0.1c-0.1-0.8-1.2-1.1-1.9-1.2
	c-1.5-0.2-2.9-0.9-3-2.6c-0.1-1.4,1-2.5,2.3-2.8V5.4c0-0.5,0.4-0.8,0.8-0.8c0.5,0,0.8,0.4,0.8,0.8v0.4c1.1,0.2,1.9,0.9,2.3,1.9
	c0.2,0.4,0,0.9-0.4,1.1c-0.4,0.2-0.9,0-1.1-0.4c-0.3-0.8-1.2-1.1-2-1C9.6,7.6,9,7.9,9.1,8.6c0,0.8,1,1,1.6,1.1
	c1.5,0.3,3,0.9,3.3,2.6c0,0.1,0,0.2,0,0.3C14,14.1,12.7,15,11.4,15.2z"/>
</svg>
