<?xml version="1.0" encoding="utf-8"?>
<!-- Generator: Adobe Illustrator 24.3.0, SVG Export Plug-In . SVG Version: 6.00 Build 0)  -->
<svg version="1.1" id="Layer_1" xmlns="http://www.w3.org/2000/svg" xmlns:xlink="http://www.w3.org/1999/xlink" x="0px" y="0px"
	 viewBox="0 0 64.6 50" style="enable-background:new 0 0 64.6 50;" xml:space="preserve">
<style type="text/css">
	.st0{fill:#1C1D21;}
	.st1{fill:#F24B09;}
</style>
<g>
	<path class="st0" d="M61.8,8.2c-1,0.6-2,1-3.3,1c-1.2,0-2.3-0.4-3.3-1c-1.6,0.6-2.9,2.1-2.9,4v2.2c0,0.2,0.2,0.4,0.4,0.4h11.4
		c0.2,0,0.4-0.2,0.4-0.4v-2.2C64.6,10.3,63.4,8.8,61.8,8.2L61.8,8.2z"/>
	<path class="st0" d="M62.2,3.7c0,2-1.6,3.7-3.7,3.7c-2,0-3.7-1.6-3.7-3.7c0-2,1.6-3.7,3.7-3.7C60.5,0,62.2,1.6,62.2,3.7"/>
	<path class="st0" d="M61.8,25.9c-1,0.6-2,1-3.3,1c-1.2,0-2.3-0.4-3.3-1c-1.6,0.6-2.9,2.1-2.9,4v2.2c0,0.2,0.2,0.4,0.4,0.4h11.4
		c0.2,0,0.4-0.2,0.4-0.4v-2.2C64.6,28.1,63.4,26.5,61.8,25.9L61.8,25.9z"/>
	<path class="st0" d="M62.2,21.4c0,2-1.6,3.7-3.7,3.7c-2,0-3.7-1.6-3.7-3.7c0-2,1.6-3.7,3.7-3.7C60.5,17.8,62.2,19.4,62.2,21.4"/>
	<path class="st0" d="M61.8,43.3c-1,0.6-2,1-3.3,1c-1.2,0-2.3-0.4-3.3-1c-1.6,0.6-2.9,2.1-2.9,4v2.2c0,0.2,0.2,0.4,0.4,0.4h11.4
		c0.2,0,0.4-0.2,0.4-0.4v-2.2C64.6,45.4,63.4,43.9,61.8,43.3L61.8,43.3z"/>
	<path class="st0" d="M62.2,38.8c0,2-1.6,3.7-3.7,3.7c-2,0-3.7-1.6-3.7-3.7c0-2,1.6-3.7,3.7-3.7C60.5,35.1,62.2,36.7,62.2,38.8"/>
	<path class="st0" d="M44.8,13.3c0.1,0.1,0.3,0.1,0.4,0.1c0.2,0,0.4-0.1,0.5-0.2l4.2-3.1c0.2-0.2,0.3-0.5,0.3-0.7
		c0-0.3-0.1-0.5-0.3-0.7l-4.2-3.1c-0.3-0.2-0.6-0.2-1-0.1c-0.3,0.1-0.5,0.5-0.5,0.8v1.9h-3.5c-2.8,0-5,2.2-5,5v12.7h-4.6
		c-0.7-6.6-6.3-11.8-13.1-11.8c-2.4,0-4.8,0.7-6.7,1.8l1.9,1.9c1.4-0.7,3.1-1.2,4.8-1.2c5.9,0,10.5,4.8,10.5,10.5
		c0,5.9-4.8,10.5-10.5,10.5S7.5,32.9,7.5,27.1c0-1.8,0.4-3.4,1.2-4.8l-1.9-1.9c-1.2,2-1.8,4.3-1.8,6.7c0,7.3,5.9,13.1,13.1,13.1
		c6.8,0,12.4-5.2,13.1-11.9l4.6,0v12.4c0,2.8,2.2,5,5,5h3.5v1.9c0,0.3,0.2,0.7,0.5,0.8c0.1,0.1,0.3,0.1,0.4,0.1
		c0.2,0,0.4-0.1,0.5-0.2l4.2-3.1c0.2-0.2,0.3-0.5,0.3-0.7c0-0.3-0.1-0.5-0.3-0.7l-4.2-3.1c-0.3-0.2-0.6-0.2-1-0.1
		c-0.3,0.1-0.5,0.5-0.5,0.8v1.9h-3.5c-1.4,0-2.5-1.1-2.5-2.5l0-12.4h6v1.9c0,0.3,0.2,0.7,0.5,0.8c0.1,0.1,0.3,0.1,0.4,0.1
		c0.2,0,0.4-0.1,0.5-0.2l4.2-3.1c0.2-0.2,0.3-0.5,0.3-0.7s-0.1-0.5-0.3-0.7l-4.2-3.1c-0.3-0.2-0.6-0.3-1-0.1
		c-0.3,0.1-0.5,0.5-0.5,0.8v1.9h-6V13.1c0-1.4,1.1-2.5,2.5-2.5h3.5v1.9C44.2,12.9,44.4,13.1,44.8,13.3L44.8,13.3z"/>
	<path class="st0" d="M10.4,24c-0.4,1-0.6,2-0.6,3c0,4.5,3.7,8.2,8.2,8.2s8.2-3.7,8.2-8.2s-3.7-8.2-8.2-8.2c-1.1,0-2.1,0.2-3,0.6
		l2,2c0.3-0.1,0.6-0.1,1-0.1c3.1,0,5.6,2.5,5.6,5.6c0,3.1-2.5,5.6-5.6,5.6c-3.1,0-5.6-2.5-5.6-5.6c0-0.3,0-0.6,0.1-1L10.4,24z"/>
	<path class="st1" d="M15,25.9c-0.1,0.3-0.2,0.7-0.2,1.2c0,1.8,1.4,3.2,3.2,3.2s3.3-1.4,3.3-3.2c0-1.8-1.4-3.3-3.3-3.3
		c-0.4,0-0.8,0.1-1.2,0.2l-8.7-8.6v-2.7c0-0.3-0.1-0.5-0.3-0.7L5.2,9.4C4.9,9.1,4.5,9,4.2,9.2c-0.4,0.1-0.6,0.5-0.6,0.9v2.6H1
		c-0.4,0-0.7,0.2-0.9,0.6c-0.1,0.3-0.1,0.7,0.2,1l2.7,2.7c0.2,0.2,0.4,0.3,0.7,0.3h2.7L15,25.9z"/>
</g>
</svg>
