<?xml version="1.0" encoding="utf-8"?>
<!-- Generator: Adobe Illustrator 24.3.0, SVG Export Plug-In . SVG Version: 6.00 Build 0)  -->
<svg version="1.1" id="Layer_1" xmlns="http://www.w3.org/2000/svg" xmlns:xlink="http://www.w3.org/1999/xlink" x="0px" y="0px"
	 viewBox="0 0 50.8 50" style="enable-background:new 0 0 50.8 50;" xml:space="preserve">
<style type="text/css">
	.st0{fill-rule:evenodd;clip-rule:evenodd;fill:#1C1D21;}
	.st1{fill-rule:evenodd;clip-rule:evenodd;fill:#F24B09;}
</style>
<path class="st0" d="M13.7,50c-0.7,0-1.3-0.6-1.3-1.3c0-0.7,0.6-1.3,1.3-1.3h5c0.3-2,0.5-4.1,0.3-6.1H3.6c-2,0-3.6-1.6-3.6-3.6V8.5
	c0-2,1.6-3.6,3.6-3.6h17.2l0.1-0.2l6,3.4l-8,13.9l-6-3.4l6.6-11.4l-15.8,0c-0.8,0-1.4,0.6-1.4,1.4v24.9h46.3l0-24.9
	c0-0.8-0.6-1.4-1.4-1.4H29.3L22,2.9l0.7-1.2c0.9-1.6,3.1-2.2,4.7-1.3c1.6,0.9,2.1,2.8,1.4,4.4h18.4c2,0,3.6,1.6,3.6,3.6v29.2
	c0,2-1.6,3.6-3.6,3.6H31.7c-0.2,2,0,4.1,0.4,6.1h5c0.7,0,1.3,0.6,1.3,1.3c0,0.7-0.6,1.3-1.3,1.3L13.7,50L13.7,50z"/>
<path class="st1" d="M39.3,20.6c0-0.6-0.5-1-1-1l-10.7,0c-0.6,0-1,0.5-1,1c0,0.6,0.5,1,1,1h10.7C38.8,21.6,39.3,21.1,39.3,20.6
	L39.3,20.6z"/>
<path class="st1" d="M14.6,25l2.7-1.6l-4.9-2.8V25c-0.5,0.1-0.9,0.5-0.9,1c0,0.6,0.5,1,1,1h25.7c0.6,0,1-0.5,1-1s-0.5-1-1-1H14.6z"
	/>
</svg>
