<?xml version="1.0" encoding="utf-8"?>
<!-- Generator: Adobe Illustrator 24.3.0, SVG Export Plug-In . SVG Version: 6.00 Build 0)  -->
<svg version="1.1" id="Layer_1" xmlns="http://www.w3.org/2000/svg" xmlns:xlink="http://www.w3.org/1999/xlink" x="0px" y="0px"
	 viewBox="0 0 50 50" style="enable-background:new 0 0 50 50;" xml:space="preserve">
<style type="text/css">
	.st0{fill:#F24B09;}
	.st1{fill:#1C1D21;}
</style>
<path class="st0" d="M28.7,26.1l-4.9-4.9l-1.6,6.5L28.7,26.1z"/>
<path class="st0" d="M24.7,19.3L40.5,3.5l6,6L30.7,25.3L24.7,19.3z"/>
<path class="st0" d="M45.8,0c-1.1,0-2.2,0.4-3,1.2l-0.9,0.9l6,6l0.9-0.9v0c0.8-0.8,1.2-1.9,1.2-3s-0.4-2.2-1.2-3
	C48,0.4,46.9,0,45.8,0z"/>
<path class="st1" d="M43.9,26.6c-0.6,0-1,0.4-1,1V48L2,48V7.1h20.4c0.6,0,1-0.4,1-1c0-0.6-0.4-1-1-1H1c-0.6,0-1,0.4-1,1V49
	c0,0.6,0.4,1,1,1h42.9c0.6,0,1-0.4,1-1V27.6c0-0.3-0.1-0.5-0.3-0.7S44.1,26.6,43.9,26.6L43.9,26.6z"/>
</svg>
