<?xml version="1.0" encoding="utf-8"?>
<!-- Generator: Adobe Illustrator 24.3.0, SVG Export Plug-In . SVG Version: 6.00 Build 0)  -->
<svg version="1.1" id="Layer_1" xmlns="http://www.w3.org/2000/svg" xmlns:xlink="http://www.w3.org/1999/xlink" x="0px" y="0px"
	 viewBox="0 0 55.1 50" style="enable-background:new 0 0 55.1 50;" xml:space="preserve">
<style type="text/css">
	.st0{fill:#1C1D21;}
	.st1{fill:#F24B09;}
</style>
<g>
	<path class="st0" d="M1.1,24.2c0.5,0.2,1,0.3,1.5,0.1c0.5-0.2,0.9-0.5,1.1-1l4-8.1h9l4,8.1c0.2,0.5,0.6,0.8,1.1,1
		c0.5,0.2,1,0.1,1.5-0.1c0.5-0.2,0.8-0.6,1-1.1c0.2-0.5,0.1-1-0.1-1.5L13.9,1.1v0c-0.4-0.6-1-1-1.7-1c-0.7,0-1.4,0.4-1.7,1L0.2,21.6
		l0,0C0,22-0.1,22.6,0.1,23C0.3,23.5,0.6,23.9,1.1,24.2L1.1,24.2z M12.2,6.2l2.6,5.2H9.6L12.2,6.2z M47.4,6.4
		C47.2,4.6,46.3,3,45,1.8C43.7,0.6,41.9,0,40.2,0h-8.3c-1.1,0-2.2,0.4-3,1.2c-0.8,0.8-1.2,1.9-1.2,3v16v0c0,1.1,0.4,2.2,1.2,3
		c0.8,0.8,1.9,1.2,3,1.2h8.5c2,0,3.9-0.8,5.2-2.3c1.3-1.5,2-3.4,1.8-5.4c-0.2-1.7-1-3.3-2.3-4.4c0.2-0.1,0.3-0.3,0.5-0.4
		C46.9,10.3,47.6,8.3,47.4,6.4L47.4,6.4z M42.8,19.5c-0.6,0.7-1.5,1-2.4,1.1h-8.5c-0.1,0-0.2,0-0.3-0.1c-0.1-0.1-0.1-0.2-0.1-0.3
		v-6.1h8.7c0.8,0,1.6,0.3,2.3,0.8c0.6,0.5,1,1.3,1.2,2.1C43.7,17.9,43.4,18.8,42.8,19.5L42.8,19.5z M42.8,9.2L42.8,9.2
		c-0.6,0.7-1.5,1-2.4,1.1h-8.9V4.2c0-0.1,0-0.2,0.1-0.3c0.1-0.1,0.2-0.1,0.3-0.1h8.3c0.8,0,1.6,0.3,2.3,0.8c0.6,0.5,1,1.3,1.2,2.1
		C43.7,7.6,43.4,8.5,42.8,9.2L42.8,9.2z"/>
	<path class="st1" d="M21.1,39.2c-0.4-0.4-0.6-0.9-0.6-1.4c0-0.5,0.2-1,0.6-1.4c0.4-0.4,0.9-0.6,1.4-0.6c0.5,0,1,0.2,1.4,0.6
		l8.9,8.9l19.2-19.2h0c0.5-0.5,1.2-0.6,1.8-0.5c0.6,0.2,1.2,0.7,1.3,1.3c0.2,0.6,0,1.3-0.5,1.8L34.1,49.4h0
		c-0.4,0.4-0.8,0.6-1.4,0.6c-0.5,0-1-0.2-1.4-0.6L21.1,39.2z"/>
</g>
</svg>
