<?xml version="1.0" encoding="utf-8"?>
<!-- Generator: Adobe Illustrator 24.3.0, SVG Export Plug-In . SVG Version: 6.00 Build 0)  -->
<svg version="1.1" id="Layer_1" xmlns="http://www.w3.org/2000/svg" xmlns:xlink="http://www.w3.org/1999/xlink" x="0px" y="0px"
	 viewBox="0 0 49.9 50" style="enable-background:new 0 0 49.9 50;" xml:space="preserve">
<style type="text/css">
	.st0{fill:#F24B09;}
	.st1{fill:#1C1D21;}
</style>
<path class="st0" d="M48.9,44l-4.4-4.4c1.6-3.6,0.8-7.8-2-10.7c-1.8-1.8-4.2-2.8-6.8-2.8h0c-2.6,0-5,1-6.8,2.8
	c-1.8,1.8-2.8,4.2-2.8,6.8c0,2.6,1,5,2.8,6.8c1.8,1.8,4.3,2.8,6.8,2.8c1.3,0,2.5-0.3,3.7-0.8l4.5,4.5c0.7,0.7,1.6,1,2.5,1
	c0.9,0,1.8-0.3,2.5-1c0.7-0.7,1-1.6,1-2.5C49.9,45.5,49.6,44.6,48.9,44L48.9,44z M42.1,39.8c-0.3,0.4-0.6,0.9-1,1.2
	c-0.4,0.4-0.8,0.7-1.2,1c-3,1.9-7,1.5-9.5-1c-1.4-1.4-2.2-3.4-2.2-5.4c0-2,0.8-3.9,2.2-5.4c1.4-1.4,3.4-2.2,5.4-2.2h0
	c2,0,3.9,0.8,5.4,2.2C43.6,32.8,44,36.8,42.1,39.8L42.1,39.8z"/>
<path class="st1" d="M35.7,24.1c0.8,0,1.6,0.1,2.4,0.2v-9.3c-0.3,0.1-0.6,0.2-1,0.2h-9.2c-2.8,0-5.1-2.3-5.1-5.1V1
	c0-0.3,0.1-0.7,0.2-1L3.1,0C1.4,0,0,1.4,0,3.1v43.4c0,1.7,1.4,3.1,3.1,3.1H35c1.5,0,2.8-1.1,3-2.5c-0.8,0.1-1.5,0.2-2.3,0.2
	c-3.1,0-6-1.2-8.2-3.4c-1.4-1.4-2.4-3.2-3-5.1H7.9c-0.5,0-1-0.4-1-1c0-0.5,0.4-1,1-1h16.3c0-0.4,0-0.8,0-1.1c0-1.2,0.2-2.3,0.5-3.4
	H7.9c-0.5,0-1-0.4-1-1s0.4-1,1-1h17.6c0.5-1,1.2-2,2.1-2.8c0.7-0.7,1.4-1.2,2.2-1.7H7.9c-0.5,0-1-0.4-1-1s0.4-1,1-1h22.3
	c0.5,0,1,0.4,1,1c0,0.1,0,0.2-0.1,0.3C32.5,24.4,34.1,24.1,35.7,24.1L35.7,24.1z M7.9,10.7h13.3c0.5,0,1,0.4,1,1c0,0.5-0.4,1-1,1
	H7.9c-0.5,0-1-0.4-1-1C6.9,11.2,7.4,10.7,7.9,10.7L7.9,10.7z M30.2,19.2H7.9c-0.5,0-1-0.4-1-1c0-0.6,0.4-1,1-1h22.3c0.5,0,1,0.4,1,1
	C31.2,18.8,30.7,19.2,30.2,19.2L30.2,19.2z"/>
<path class="st1" d="M27.8,13.3h9.2c0.4,0,0.8-0.2,0.9-0.6c0.1-0.4,0.1-0.8-0.2-1.1L26.4,0.3c-0.3-0.3-0.7-0.4-1.1-0.2
	C25,0.2,24.8,0.6,24.8,1v9.2C24.8,11.9,26.1,13.3,27.8,13.3L27.8,13.3z"/>
</svg>
