<?xml version="1.0" encoding="utf-8"?>
<!-- Generator: Adobe Illustrator 24.3.0, SVG Export Plug-In . SVG Version: 6.00 Build 0)  -->
<svg version="1.1" id="Layer_1" xmlns="http://www.w3.org/2000/svg" xmlns:xlink="http://www.w3.org/1999/xlink" x="0px" y="0px"
	 viewBox="0 0 64.9 50" style="enable-background:new 0 0 64.9 50;" xml:space="preserve">
<style type="text/css">
	.st0{fill:#1C1D21;}
	.st1{fill:#F24B09;}
</style>
<path class="st0" d="M57.4,0v16.7c-1.2,0.7-2.3,1.3-3.2,1.6v-7.8H3.2v36.4h51.1V34c0.2,0.1,0.4,0.2,0.6,0.3c0.7,0.4,1.6,0.8,2.5,1.4
	V50H0V0L57.4,0L57.4,0z M10.1,18.7h18.7v3.2H10.1L10.1,18.7z M10.1,41.1h15.1v3.2H10.1L10.1,41.1z M10.1,13.1h22.5v3.2H10.1V13.1z
	 M10.1,35.5h18.7v3.2H10.1L10.1,35.5z M10.1,24.3h23.8v3.2H10.1L10.1,24.3z M10.1,29.9h23.8V33H10.1L10.1,29.9z M49.4,3.9h2.7v2.7
	h-2.7V3.9z M44.9,3.9h2.7v2.7h-2.7V3.9z M40.3,3.9H43v2.7h-2.7V3.9z M54.3,3.2H3.2v4.2h51.1V3.2z"/>
<path class="st1" d="M61.1,15.7v0.5c-9.3,5.8-8.6,4.5-19.7,4.5c-2,0-3.6,1.6-3.6,3.6v4.1c0,1.3,0.7,2.5,1.8,3.1v7.1h12.1v-6.6
	c2.5,0.4,4.6,1.5,9.4,4.4v0.5c0,2.5,3.8,2.5,3.8,0v-21C64.9,13.2,61.1,13.2,61.1,15.7z M48.1,34.8h-4.9v-3c2,0,3.6-0.1,4.9-0.1V34.8
	z"/>
</svg>
