<?xml version="1.0" encoding="utf-8"?>
<!-- Generator: Adobe Illustrator 24.3.0, SVG Export Plug-In . SVG Version: 6.00 Build 0)  -->
<svg version="1.1" id="Layer_1" xmlns="http://www.w3.org/2000/svg" xmlns:xlink="http://www.w3.org/1999/xlink" x="0px" y="0px"
	 viewBox="0 0 40.7 50" style="enable-background:new 0 0 40.7 50;" xml:space="preserve">
<style type="text/css">
	.st0{fill:#64D5D8;}
	.st1{fill:#164949;}
</style>
<path class="st0" d="M13.4,18.4l9.1-7h0c0.6-0.5,1-1.2,1-2c0-0.8-0.4-1.5-1-2l-9.1-7h0C13,0,12.3-0.1,11.8,0.1
	C11.3,0.4,11,0.9,11,1.4v4.7H3.1C2,6.2,1,6.8,0.4,7.8c-0.6,1-0.6,2.2,0,3.1c0.6,1,1.6,1.6,2.7,1.6H11v4.7c0,0.6,0.3,1.1,0.8,1.4
	C12.3,18.8,12.9,18.7,13.4,18.4L13.4,18.4z M22.5,38.6l-9.1-7c-0.5-0.3-1.1-0.4-1.6-0.2c-0.5,0.2-0.8,0.8-0.9,1.3v4.7H3.1
	c-1.1,0-2.2,0.6-2.7,1.6c-0.6,1-0.6,2.2,0,3.1c0.6,1,1.6,1.6,2.7,1.6H11v4.7c0,0.6,0.3,1.1,0.8,1.4c0.5,0.3,1.1,0.2,1.6-0.2l9.1-7
	l0,0c0.6-0.5,1-1.2,1-2C23.5,39.9,23.1,39.1,22.5,38.6L22.5,38.6z"/>
<path class="st1" d="M40.7,25c0,0.8-0.3,1.6-0.9,2.2c-0.6,0.6-1.4,0.9-2.2,0.9h-7.8v4.7c0,0.6-0.3,1.1-0.8,1.4
	c-0.5,0.3-1.1,0.2-1.6-0.2l-9.1-7l0,0c-0.6-0.5-1-1.2-1-2c0-0.8,0.4-1.5,1-2l9.1-7h0c0.4-0.4,1.1-0.4,1.6-0.2
	c0.5,0.2,0.9,0.7,0.9,1.3v4.7h7.8c0.8,0,1.6,0.3,2.2,0.9C40.4,23.3,40.7,24.1,40.7,25L40.7,25z"/>
</svg>
