<?xml version="1.0" encoding="utf-8"?>
<!-- Generator: Adobe Illustrator 24.3.0, SVG Export Plug-In . SVG Version: 6.00 Build 0)  -->
<svg version="1.1" id="Layer_1" xmlns="http://www.w3.org/2000/svg" xmlns:xlink="http://www.w3.org/1999/xlink" x="0px" y="0px"
	 viewBox="0 0 48.3 50" style="enable-background:new 0 0 48.3 50;" xml:space="preserve">
<style type="text/css">
	.st0{fill:#F2E825;}
</style>
<path d="M47.4,23c1.2-0.1,1.2,1.7,0,1.8c-2.4,0.2-4.8,0.6-7,0.7c-1.2,0.1-1.2-1.7,0-1.8C42.6,23.5,45,23.2,47.4,23z"/>
<path d="M39.7,7.6c0.7-1,2.4,0,1.6,1c-1.4,2-2.8,3.8-4.3,5.7c-0.7,1-2.4,0-1.6-1C36.9,11.3,38.3,9.4,39.7,7.6z"/>
<path class="st0" d="M35.7,26.3c0,3.6-1.3,6.5-3.8,8.7c-0.1,0-0.8,0.7-0.8,0.7l-0.1,0.1c-1,1.4-1.8,5.5-2,8.7
	c-0.1-0.1-0.2-0.1-0.4-0.1h-6.8c-1.4,0-1.4,2.2,0,2.2h6.8h0.3c-0.4,1.9-2.1,3.3-4,3.3h-2.3c-2.2,0-4-1.8-4-4v-0.2
	c0-1.4-0.1-2.9-0.4-4.5h7.2c1.4,0,1.4-2.2,0-2.2h-6.8c-0.1,0-0.3,0.1-0.4,0.1c-0.2-1.4-0.8-2.7-1.1-3.3l-0.6-0.7l-0.1-0.1
	c-2.6-2.2-4-5.2-4-8.7c0-6.4,5.3-11.7,11.7-11.7C30.4,14.6,35.7,19.8,35.7,26.3L35.7,26.3z"/>
<path d="M24.7,0.9v7.1c0,1.2-1.8,1.2-1.8,0V0.9C22.8-0.3,24.7-0.3,24.7,0.9z"/>
<path d="M12.7,13.3c0.7,1-0.9,1.8-1.6,1c-1.4-1.8-2.8-3.8-4.3-5.7c-0.6-1,1-2,1.6-1C9.9,9.4,11.4,11.3,12.7,13.3z"/>
<path d="M7.9,23.8c1.2,0.1,1.2,2.1,0,1.8c-2.4-0.2-4.8-0.5-7-0.7c-1.2-0.1-1.2-2,0-1.8C3.3,23.2,5.5,23.5,7.9,23.8z"/>
</svg>
