<?xml version="1.0" encoding="utf-8"?>
<!-- Generator: Adobe Illustrator 24.3.0, SVG Export Plug-In . SVG Version: 6.00 Build 0)  -->
<svg version="1.1" id="Layer_1" xmlns="http://www.w3.org/2000/svg" xmlns:xlink="http://www.w3.org/1999/xlink" x="0px" y="0px"
	 viewBox="0 0 50.5 50" style="enable-background:new 0 0 50.5 50;" xml:space="preserve">
<style type="text/css">
	.st0{fill-rule:evenodd;clip-rule:evenodd;fill:#382359;}
</style>
<path class="st0" d="M25.6,7.5l1.7,4.6c0.1,0.1,0.2,0.2,0.3,0.2l4.9,0.2c0.2,0,0.3,0.1,0.3,0.2c0,0.1,0,0.3-0.1,0.4l-3.8,3.1
	c-0.1,0.1-0.2,0.2-0.1,0.4l1.3,4.7c0,0.1,0,0.3-0.1,0.4c-0.1,0.1-0.3,0.1-0.4,0l-4.1-2.7c-0.1-0.1-0.3-0.1-0.4,0L21,21.7
	c-0.1,0.1-0.3,0.1-0.4,0c-0.1-0.1-0.2-0.2-0.1-0.4l1.3-4.7c0-0.1,0-0.3-0.1-0.4l-3.8-3.1c-0.1-0.1-0.2-0.2-0.1-0.4
	c0-0.1,0.2-0.2,0.3-0.2l4.9-0.2c0.1,0,0.3-0.1,0.3-0.2l1.7-4.6c0.1-0.1,0.2-0.2,0.3-0.2C25.4,7.3,25.5,7.4,25.6,7.5L25.6,7.5z
	 M1.1,44.6h11.1V42c0-1.9,0.8-3.3,2.1-4.3c-1.5-0.9-3.2-1.5-5.1-1.5c-4.4,0-8.1,3-9.1,7.1c-0.1,0.3,0,0.7,0.2,0.9
	C0.4,44.5,0.7,44.6,1.1,44.6L1.1,44.6z M25.2,24.5c2.5,0,4.5,1.4,4.5,4.7c0,3.3-2,5.9-4.5,5.9s-4.5-2.7-4.5-5.9
	C20.7,25.9,22.7,24.5,25.2,24.5z M15.2,50c-0.7,0-1.3-0.6-1.3-1.3l0-6.7c0-2.5,2.3-4,4.8-4.6c1.8-0.5,3.6-0.7,5.4-0.8l-1.8,6.8
	c-0.1,0.2,0,0.5,0.2,0.6l2.6,2.7c0.1,0.1,0.1,0.1,0.2,0.1c0.1,0,0.1,0,0.2-0.1l2.6-2.7c0.2-0.2,0.2-0.4,0.2-0.6l-1.8-6.7
	c1.8,0.1,3.6,0.4,5.4,0.8c2.6,0.6,4.8,2.1,4.8,4.6v6.7c0,0.7-0.6,1.3-1.3,1.3L15.2,50L15.2,50z M41.3,25.6c2.6,0,4.8,2.1,4.8,4.8
	c0,2.6-2.1,4.8-4.8,4.8c-2.6,0-4.8-2.1-4.8-4.8C36.5,27.7,38.7,25.6,41.3,25.6z M38.3,44.6h11.1c0.3,0,0.6-0.1,0.8-0.4
	c0.2-0.3,0.3-0.6,0.2-0.9c-1-4.1-4.7-7.1-9.1-7.1c-1.9,0-3.6,0.5-5.1,1.5c1.2,1,2.1,2.4,2.1,4.3L38.3,44.6z M9.2,25.6
	c2.6,0,4.8,2.1,4.8,4.8c0,2.6-2.1,4.8-4.8,4.8c-2.6,0-4.8-2.1-4.8-4.8C4.4,27.7,6.5,25.6,9.2,25.6z M16.1,6l3,2.7
	c0.4,0.3,0.9,0.3,1.2-0.1c0.3-0.4,0.3-0.9-0.1-1.2l-3-2.7c-0.4-0.3-0.9-0.3-1.2,0.1C15.8,5.1,15.8,5.7,16.1,6z M33.2,4.7l-3.1,2.8
	c-0.4,0.3-0.4,0.9-0.1,1.2c0.3,0.4,0.9,0.4,1.2,0.1L34.3,6c0.4-0.3,0.4-0.9,0.1-1.2S33.5,4.4,33.2,4.7z M26.1,4
	c0,0.5-0.4,0.9-0.9,0.9c-0.5,0-0.9-0.4-0.9-0.9V0.9c0-0.5,0.4-0.9,0.9-0.9c0.5,0,0.9,0.4,0.9,0.9V4z"/>
</svg>
