<?xml version="1.0" encoding="utf-8"?>
<!-- Generator: Adobe Illustrator 24.3.0, SVG Export Plug-In . SVG Version: 6.00 Build 0)  -->
<svg version="1.1" id="Layer_1" xmlns="http://www.w3.org/2000/svg" xmlns:xlink="http://www.w3.org/1999/xlink" x="0px" y="0px"
	 viewBox="0 0 49 50" style="enable-background:new 0 0 49 50;" xml:space="preserve">
<style type="text/css">
	.st0{fill-rule:evenodd;clip-rule:evenodd;fill:#6D4129;}
	.st1{fill-rule:evenodd;clip-rule:evenodd;}
</style>
<g>
	<path class="st0" d="M49,15.7v9.8c0,0.4-0.2,0.8-0.5,1.2c-0.3,0.3-0.7,0.5-1.2,0.5h-1.8c-0.5-1.9-1.8-3.5-3.5-4.3s-3.8-0.8-5.6,0
		c-1.8,0.8-3.1,2.4-3.5,4.3h-3.5v-4.9c0-0.4-0.2-0.8-0.5-1.2c-0.3-0.3-0.7-0.5-1.2-0.5c-1.2,0-2.2-0.6-2.8-1.6c-0.6-1-0.6-2.3,0-3.3
		s1.7-1.6,2.8-1.6c0.4,0,0.8-0.2,1.2-0.5c0.3-0.3,0.5-0.7,0.5-1.2V9.1c0-0.4,0.2-0.8,0.5-1.2c0.3-0.3,0.7-0.5,1.2-0.5h9.8
		c2.2,0,4.2,0.9,5.8,2.4C48.1,11.4,49,13.5,49,15.7L49,15.7z"/>
	<path class="st0" d="M49,32v9.8c0,2.2-0.9,4.3-2.4,5.8C45.1,49.1,43,50,40.8,50H31c-0.4,0-0.8-0.2-1.2-0.5
		c-0.3-0.3-0.5-0.7-0.5-1.2v-1.8c1.9-0.5,3.4-1.8,4.3-3.6c0.8-1.8,0.8-3.8,0-5.6c-0.8-1.8-2.4-3.1-4.3-3.6v-3.5h4.9
		c0.4,0,0.8-0.2,1.2-0.5c0.3-0.3,0.5-0.7,0.5-1.2c0-1.2,0.6-2.2,1.6-2.8c1-0.6,2.3-0.6,3.3,0c1,0.6,1.6,1.7,1.6,2.8
		c0,0.4,0.2,0.8,0.5,1.2c0.3,0.3,0.7,0.5,1.2,0.5h3.3c0.4,0,0.9,0.2,1.2,0.5C48.8,31.2,49,31.6,49,32L49,32z"/>
	<path class="st1" d="M0.1,15.5l2.6-9.5c0.6-2.1,1.9-3.9,3.8-5c1.9-1.1,4.1-1.4,6.2-0.8l9.5,2.6c0.4,0.1,0.8,0.4,1,0.8
		c0.2,0.4,0.3,0.8,0.2,1.2l-0.5,1.8c-1.9,0-3.8,0.8-5.1,2.3c-1.3,1.5-1.8,3.5-1.5,5.4c0.3,1.9,1.5,3.6,3.2,4.5l-0.9,3.4l-4.7-1.3
		c-0.4-0.1-0.9-0.1-1.2,0.2c-0.4,0.2-0.7,0.6-0.8,1c-0.3,1.1-1.2,2-2.3,2.3c-1.1,0.3-2.3,0-3.2-0.9c-0.8-0.8-1.1-2-0.8-3.2
		c0.1-0.4,0.1-0.9-0.2-1.2c-0.2-0.4-0.6-0.7-1-0.8l-3.2-0.9c-0.4-0.1-0.8-0.4-1-0.8C0,16.4-0.1,15.9,0.1,15.5L0.1,15.5z"/>
	<path class="st0" d="M31,40.2c0,0.9-0.3,1.7-1,2.3c-0.6,0.6-1.4,1-2.3,1c-0.4,0-0.8,0.2-1.2,0.5c-0.3,0.3-0.5,0.7-0.5,1.2v3.3
		c0,0.4-0.2,0.8-0.5,1.2c-0.3,0.3-0.7,0.5-1.2,0.5h-9.8c-2.2,0-4.2-0.9-5.8-2.4c-1.5-1.5-2.4-3.6-2.4-5.8V32c0-0.4,0.2-0.8,0.5-1.2
		c0.3-0.3,0.7-0.5,1.2-0.5H10c0.5,1.9,1.8,3.4,3.6,4.2c1.8,0.8,3.8,0.8,5.5,0c1.8-0.8,3.1-2.4,3.6-4.2l3.5,0.1v4.7
		c0,0.4,0.1,0.9,0.5,1.2c0.3,0.3,0.7,0.5,1.2,0.5c0.9,0,1.7,0.4,2.3,1C30.7,38.5,31,39.3,31,40.2L31,40.2z"/>
</g>
</svg>
