<?xml version="1.0" encoding="utf-8"?>
<!-- Generator: Adobe Illustrator 24.3.0, SVG Export Plug-In . SVG Version: 6.00 Build 0)  -->
<svg version="1.1" id="Layer_1" xmlns="http://www.w3.org/2000/svg" xmlns:xlink="http://www.w3.org/1999/xlink" x="0px" y="0px"
	 viewBox="0 0 89.4 50" style="enable-background:new 0 0 89.4 50;" xml:space="preserve">
<style type="text/css">
	.st0{fill:#81B5B0;}
	.st1{fill:#82AA80;}
</style>
<path class="st0" d="M27.9,48.5H6c-1.2,0-2.1-1-2.2-2.1L1.5,35c0-1.2,1-2.1,2.2-2.1l21.9,0c0.6-0.8,1.5-1.4,2.6-1.5l-24.8,0
	C1.5,31.5,0,33.1,0,35l2.3,11.4C2.4,48.4,4.1,50,6,50h24.2c0.1,0,0.2,0,0.3,0C29.5,49.9,28.5,49.3,27.9,48.5L27.9,48.5z"/>
<path class="st0" d="M28.2,29.9v-1.2h0c0.1-2.1,1-3.7,2.3-4.8c-1.2-0.9-2.7-1.4-4.5-1.4h-1.7v0H10.2c-4,0-6.7,2.4-6.9,6.2h0v1.2
	L28.2,29.9z"/>
<path class="st1" d="M59.8,48.4c0.4-0.6,0.7-1.2,0.7-2l0.1-0.6l2.2-10.5l0-0.3c0-1.9-1.5-3.5-3.3-3.7l-14.8,0l-14.8,0
	c-1.9,0.2-3.3,1.8-3.3,3.7l0,0.3l2.2,10.5l0.1,0.6c0,0.7,0.3,1.4,0.7,2c0.7,0.9,1.8,1.6,3,1.6h24.2C58,50,59.1,49.4,59.8,48.4
	L59.8,48.4z M59,46.4c0,1.2-1,2.1-2.2,2.1H32.6c-1.2,0-2.1-1-2.2-2.1l0-0.1L29,39.3L28.1,35c0-0.1,0-0.2,0-0.2c0-0.1,0-0.1,0-0.2
	c0-0.1,0.1-0.2,0.1-0.3c0,0,0-0.1,0-0.1c0-0.1,0.1-0.2,0.1-0.3c0,0,0-0.1,0.1-0.1c0.1-0.1,0.1-0.2,0.2-0.2c0,0,0,0,0.1-0.1
	c0.1-0.1,0.2-0.2,0.3-0.2c0,0,0,0,0,0c0.3-0.2,0.8-0.4,1.2-0.4l14.4,0l14.4,0c0.4,0,0.9,0.1,1.2,0.4c0,0,0,0,0,0
	c0.1,0.1,0.2,0.1,0.3,0.2c0,0,0,0,0.1,0.1c0.1,0.1,0.1,0.2,0.2,0.2c0,0,0,0.1,0.1,0.1c0.1,0.1,0.1,0.2,0.1,0.3c0,0,0,0.1,0,0.1
	c0,0.1,0.1,0.2,0.1,0.3c0,0.1,0,0.1,0,0.2c0,0.1,0,0.2,0,0.2l-0.9,4.3L59,46.2L59,46.4z"/>
<path class="st0" d="M71.3,21c4.5,0,8.1-3.6,8.1-8.1s-3.6-8.1-8.1-8.1c-4.5,0-8.1,3.6-8.1,8.1C63.2,17.3,66.8,21,71.3,21z"/>
<path class="st0" d="M18.1,21c4.5,0,8.1-3.6,8.1-8.1s-3.6-8.1-8.1-8.1S10,8.4,10,12.9C10,17.3,13.6,21,18.1,21L18.1,21z"/>
<path class="st0" d="M86.1,31.4l-24.8,0c1.1,0.1,2,0.7,2.6,1.5l21.9,0c1.2,0,2.1,0.9,2.2,2.1l-2.3,11.4c0,1.2-1,2.1-2.2,2.1H61.5
	c-0.6,0.8-1.6,1.4-2.6,1.5c0.1,0,0.2,0,0.3,0h24.2c2,0,3.6-1.6,3.7-3.5L89.4,35C89.4,33.1,88,31.5,86.1,31.4L86.1,31.4z"/>
<path class="st0" d="M61.2,28.7L61.2,28.7l0,1.2h24.8v-1.2h0c-0.2-3.8-2.8-6.2-6.9-6.2l-1.7,0H65.1v0l-1.7,0c-1.8,0-3.4,0.5-4.5,1.4
	C60.3,25,61.1,26.7,61.2,28.7L61.2,28.7z"/>
<path class="st1" d="M44.7,21.3c5.9,0,10.6-4.8,10.6-10.6C55.4,4.8,50.6,0,44.7,0c-5.9,0-10.6,4.8-10.6,10.6
	C34.1,16.5,38.9,21.3,44.7,21.3L44.7,21.3z"/>
<path class="st1" d="M29.9,28.7l0,1v0.1h29.6v-1.2h0c-0.2-3.8-2.9-6.2-6.9-6.2h-1.7l-12.4,0h-1.7C32.8,22.5,30.2,24.9,29.9,28.7
	L29.9,28.7z"/>
</svg>
