<?xml version="1.0" encoding="utf-8"?>
<!-- Generator: Adobe Illustrator 24.3.0, SVG Export Plug-In . SVG Version: 6.00 Build 0)  -->
<svg version="1.1" id="Layer_1" xmlns="http://www.w3.org/2000/svg" xmlns:xlink="http://www.w3.org/1999/xlink" x="0px" y="0px"
	 viewBox="0 0 50 50" style="enable-background:new 0 0 50 50;" xml:space="preserve">
<style type="text/css">
	.st0{fill:#E5CD1F;}
</style>
<g>
	<path d="M18.2,29.9c-0.1-2.2-1.8-3.9-3.9-3.9s-3.8,1.8-3.9,4c-0.3,0-0.5,0.3-0.5,0.6l0.1,1.2c0,0.3,0.2,0.5,0.5,0.5h0.2
		c0.6,2,2,4,3.5,4s2.9-2,3.5-4H18c0.3,0,0.5-0.2,0.5-0.5l0.1-1.2C18.7,30.2,18.5,29.9,18.2,29.9L18.2,29.9z"/>
	<path d="M14.3,21.4C6.4,21.4,0,27.8,0,35.7S6.4,50,14.3,50s14.3-6.4,14.3-14.3S22.2,21.4,14.3,21.4z M22.5,43.5l-1.1-5.9
		c-0.2-0.8-0.9-1.4-1.7-1.4h-2c0,0-2.3,6-2.4,6l-0.1-4c0-0.5-0.4-0.9-0.9-0.9c-0.5,0-0.9,0.4-0.9,0.9l-0.1,4c0-0.1-2.4-6-2.4-6H9
		c-0.8,0-1.5,0.6-1.7,1.4l-1.1,5.9c-1.9-2-3.1-4.8-3.1-7.8c0-6.2,5-11.3,11.3-11.3c6.2,0,11.3,5,11.3,11.3
		C25.6,38.7,24.4,41.4,22.5,43.5L22.5,43.5z"/>
	<path class="st0" d="M28.6,0C16.8,0,7.3,9.6,7.3,21.4v0.1c1-0.5,2-0.9,3.1-1.1C10.9,10.7,18.9,3,28.6,3C38.7,3,47,11.2,47,21.4
		c0,9.7-7.7,17.8-17.3,18.3c-0.3,1.1-0.7,2.1-1.1,3.1h0.1c11.8,0,21.4-9.6,21.4-21.4S40.4,0,28.6,0L28.6,0z"/>
	<path class="st0" d="M30.6,19l-1.2-11c0-0.4-0.4-0.7-0.7-0.7c-0.5,0-0.9,0.3-0.9,0.7l-1.2,11c-0.7,0.5-1.1,1.4-1.1,2.3
		c0,1.7,1.4,3.1,3.1,3.1h0.3l7.7,6c0.3,0.2,0.7,0.2,1.1,0c0.4-0.3,0.4-0.8,0.2-1.2l-6.1-7.7v-0.3C31.7,20.4,31.3,19.6,30.6,19
		L30.6,19z M28.6,22.8c-0.8,0-1.4-0.6-1.4-1.4c0-0.8,0.6-1.4,1.4-1.4c0.8,0,1.4,0.6,1.4,1.4C30,22.1,29.4,22.8,28.6,22.8z"/>
</g>
</svg>
